  0
SECTION
  2
HEADER
  9
$ANGBASE
  50
0.0
  9
$ANGDIR
  70
1
  9
$MEASUREMENT
  70
0
  0
ENDSEC
  0
SECTION
  2
TABLES
  0
TABLE
  2
LTYPE
  70
4
  0
LTYPE
  5
40F
  2
CONTINUOUS
  70
0
  3
Solid line
  72
65
  73
0
  40
0.0
  0
LTYPE
  5
410
  2
DASHDOT
 70
0
  3
Dash Dot ____ _ ____ _
 72
65
 73
4
 40
2.0
 49
1.25
 49
-0.25
 49
0.25
 49
-0.25
  0
LTYPE
  5
411
  2
DASHED
 70
0
  3
Dashed __ __ __ __ __
 72
65
 73
2
 40
0.75
 49
0.5
 49
-0.25
  0
LTYPE
  5
43B
  2
DOTTED
 70
0
  3
Dotted .  .  .  .
 72
65
 73
2
 40
0.2
 49
0.0
 49
-0.2
  0
ENDTAB
  0
TABLE
  2
STYLE
  70
4
  0
STYLE
  2
KICAD
  70
0
  40
0
  41
1
  42
1
  50
0
  71
0
  3
isocp.shx
  0
STYLE
  2
KICADB
  70
0
  40
0
  41
1
  42
1
  50
0
  71
0
  3
isocp.shx
  0
STYLE
  2
KICADI
  70
0
  40
0
  41
1
  42
1
  50
15
  71
0
  3
isocp.shx
  0
STYLE
  2
KICADBI
  70
0
  40
0
  41
1
  42
1
  50
15
  71
0
  3
isocp.shx
  0
ENDTAB
  0
TABLE
  2
LAYER
  70
1
  0
LAYER
  2
BLACK
  70
0
  62
7
  6
CONTINUOUS
  0
ENDTAB
  0
ENDSEC
  0
SECTION
  2
ENTITIES
0
LINE
8
BLACK
6
CONTINUOUS
10
4.83272
20
-3.62073
11
4.84225
21
-3.62243
0
LINE
8
BLACK
6
CONTINUOUS
10
4.84225
20
-3.62243
11
4.85137
21
-3.62566
0
LINE
8
BLACK
6
CONTINUOUS
10
4.85137
20
-3.62566
11
4.85985
21
-3.63034
0
LINE
8
BLACK
6
CONTINUOUS
10
4.85985
20
-3.63034
11
4.86744
21
-3.63634
0
LINE
8
BLACK
6
CONTINUOUS
10
4.86744
20
-3.63634
11
4.87395
21
-3.6435
0
LINE
8
BLACK
6
CONTINUOUS
10
4.87395
20
-3.6435
11
4.87921
21
-3.65162
0
LINE
8
BLACK
6
CONTINUOUS
10
4.87921
20
-3.65162
11
4.88307
21
-3.6605
0
LINE
8
BLACK
6
CONTINUOUS
10
4.88307
20
-3.6605
11
4.88543
21
-3.66988
0
LINE
8
BLACK
6
CONTINUOUS
10
4.88543
20
-3.66988
11
4.88622
21
-3.67953
0
LINE
8
BLACK
6
CONTINUOUS
10
4.88622
20
-3.67953
11
4.88615
21
-3.68241
0
LINE
8
BLACK
6
CONTINUOUS
10
4.88615
20
-3.68241
11
4.88489
21
-3.69201
0
LINE
8
BLACK
6
CONTINUOUS
10
4.88489
20
-3.69201
11
4.88207
21
-3.70127
0
LINE
8
BLACK
6
CONTINUOUS
10
4.88207
20
-3.70127
11
4.87779
21
-3.70994
0
LINE
8
BLACK
6
CONTINUOUS
10
4.87779
20
-3.70994
11
4.87214
21
-3.7178
0
LINE
8
BLACK
6
CONTINUOUS
10
4.87214
20
-3.7178
11
4.86528
21
-3.72463
0
LINE
8
BLACK
6
CONTINUOUS
10
4.86528
20
-3.72463
11
4.8574
21
-3.73025
0
LINE
8
BLACK
6
CONTINUOUS
10
4.8574
20
-3.73025
11
4.84871
21
-3.73451
0
LINE
8
BLACK
6
CONTINUOUS
10
4.84871
20
-3.73451
11
4.83944
21
-3.73729
0
LINE
8
BLACK
6
CONTINUOUS
10
4.83944
20
-3.73729
11
4.82984
21
-3.73852
0
LINE
8
BLACK
6
CONTINUOUS
10
4.82984
20
-3.73852
11
4.82017
21
-3.73817
0
LINE
8
BLACK
6
CONTINUOUS
10
4.82017
20
-3.73817
11
4.81069
21
-3.73624
0
LINE
8
BLACK
6
CONTINUOUS
10
4.81069
20
-3.73624
11
4.80165
21
-3.73279
0
LINE
8
BLACK
6
CONTINUOUS
10
4.80165
20
-3.73279
11
4.79329
21
-3.7279
0
LINE
8
BLACK
6
CONTINUOUS
10
4.79329
20
-3.7279
11
4.78585
21
-3.72172
0
LINE
8
BLACK
6
CONTINUOUS
10
4.78585
20
-3.72172
11
4.77951
21
-3.71441
0
LINE
8
BLACK
6
CONTINUOUS
10
4.77951
20
-3.71441
11
4.77445
21
-3.70615
0
LINE
8
BLACK
6
CONTINUOUS
10
4.77445
20
-3.70615
11
4.77081
21
-3.69719
0
LINE
8
BLACK
6
CONTINUOUS
10
4.77081
20
-3.69719
11
4.76868
21
-3.68775
0
LINE
8
BLACK
6
CONTINUOUS
10
4.76868
20
-3.68775
11
4.76813
21
-3.67808
0
LINE
8
BLACK
6
CONTINUOUS
10
4.76813
20
-3.67808
11
4.76916
21
-3.66846
0
LINE
8
BLACK
6
CONTINUOUS
10
4.76916
20
-3.66846
11
4.77174
21
-3.65914
0
LINE
8
BLACK
6
CONTINUOUS
10
4.77174
20
-3.65914
11
4.77582
21
-3.65036
0
LINE
8
BLACK
6
CONTINUOUS
10
4.77582
20
-3.65036
11
4.78127
21
-3.64236
0
LINE
8
BLACK
6
CONTINUOUS
10
4.78127
20
-3.64236
11
4.78796
21
-3.63537
0
LINE
8
BLACK
6
CONTINUOUS
10
4.78796
20
-3.63537
11
4.7957
21
-3.62956
0
LINE
8
BLACK
6
CONTINUOUS
10
4.7957
20
-3.62956
11
4.80428
21
-3.62509
0
LINE
8
BLACK
6
CONTINUOUS
10
4.80428
20
-3.62509
11
4.81348
21
-3.62208
0
LINE
8
BLACK
6
CONTINUOUS
10
4.81348
20
-3.62208
11
4.82305
21
-3.62062
0
LINE
8
BLACK
6
CONTINUOUS
10
4.82305
20
-3.62062
11
4.83272
21
-3.62073
0
LINE
8
BLACK
6
CONTINUOUS
10
4.78964
20
-3.16745
11
4.88688
21
-3.26469
0
LINE
8
BLACK
6
CONTINUOUS
10
4.88688
20
-3.26469
11
4.88688
21
-3.26469
0
LINE
8
BLACK
6
CONTINUOUS
10
4.88688
20
-3.26469
11
4.88901
21
-3.26789
0
LINE
8
BLACK
6
CONTINUOUS
10
4.88901
20
-3.26789
11
4.88976
21
-3.27165
0
LINE
8
BLACK
6
CONTINUOUS
10
4.88976
20
-3.27165
11
4.88976
21
-3.50079
0
LINE
8
BLACK
6
CONTINUOUS
10
4.88976
20
-3.50079
11
4.88901
21
-3.50455
0
LINE
8
BLACK
6
CONTINUOUS
10
4.88901
20
-3.50455
11
4.88688
21
-3.50775
0
LINE
8
BLACK
6
CONTINUOUS
10
4.88688
20
-3.50775
11
4.73294
21
-3.66168
0
LINE
8
BLACK
6
CONTINUOUS
10
4.73294
20
-3.66168
11
4.72975
21
-3.66382
0
LINE
8
BLACK
6
CONTINUOUS
10
4.72975
20
-3.66382
11
4.72598
21
-3.66457
0
LINE
8
BLACK
6
CONTINUOUS
10
4.72598
20
-3.66457
11
4.52756
21
-3.66457
0
LINE
8
BLACK
6
CONTINUOUS
10
4.52756
20
-3.66457
11
4.52756
21
-3.66457
0
LINE
8
BLACK
6
CONTINUOUS
10
4.52756
20
-3.66457
11
4.52379
21
-3.66382
0
LINE
8
BLACK
6
CONTINUOUS
10
4.52379
20
-3.66382
11
4.5206
21
-3.66168
0
LINE
8
BLACK
6
CONTINUOUS
10
4.5206
20
-3.66168
11
4.31784
21
-3.45893
0
LINE
8
BLACK
6
CONTINUOUS
10
4.31784
20
-3.45893
11
4.31571
21
-3.45574
0
LINE
8
BLACK
6
CONTINUOUS
10
4.31571
20
-3.45574
11
4.31496
21
-3.45197
0
LINE
8
BLACK
6
CONTINUOUS
10
4.31496
20
-3.45197
11
4.31496
21
-3.28242
0
LINE
8
BLACK
6
CONTINUOUS
10
4.31496
20
-3.28242
11
4.18438
21
-3.15184
0
LINE
8
BLACK
6
CONTINUOUS
10
4.18438
20
-3.15184
11
4.18225
21
-3.14865
0
LINE
8
BLACK
6
CONTINUOUS
10
4.18225
20
-3.14865
11
4.1815
21
-3.14488
0
LINE
8
BLACK
6
CONTINUOUS
10
4.1815
20
-3.14488
11
4.1815
21
-3.09055
0
LINE
8
BLACK
6
CONTINUOUS
10
4.1815
20
-3.09055
11
4.18225
21
-3.08678
0
LINE
8
BLACK
6
CONTINUOUS
10
4.18225
20
-3.08678
11
4.18438
21
-3.08359
0
LINE
8
BLACK
6
CONTINUOUS
10
4.18438
20
-3.08359
11
4.23536
21
-3.03261
0
LINE
8
BLACK
6
CONTINUOUS
10
4.23536
20
-3.03261
11
4.23536
21
-3.03261
0
LINE
8
BLACK
6
CONTINUOUS
10
4.23536
20
-3.03261
11
4.23856
21
-3.03047
0
LINE
8
BLACK
6
CONTINUOUS
10
4.23856
20
-3.03047
11
4.24232
21
-3.02972
0
LINE
8
BLACK
6
CONTINUOUS
10
4.24232
20
-3.02972
11
4.24232
21
-3.02972
0
LINE
8
BLACK
6
CONTINUOUS
10
4.24232
20
-3.02972
11
4.25335
21
-3.02972
0
LINE
8
BLACK
6
CONTINUOUS
10
4.25335
20
-3.02972
11
4.25462
21
-3.02623
0
LINE
8
BLACK
6
CONTINUOUS
10
4.25462
20
-3.02623
11
4.25825
21
-3.02061
0
LINE
8
BLACK
6
CONTINUOUS
10
4.25825
20
-3.02061
11
4.26303
21
-3.01593
0
LINE
8
BLACK
6
CONTINUOUS
10
4.26303
20
-3.01593
11
4.26872
21
-3.01242
0
LINE
8
BLACK
6
CONTINUOUS
10
4.26872
20
-3.01242
11
4.27505
21
-3.01027
0
LINE
8
BLACK
6
CONTINUOUS
10
4.27505
20
-3.01027
11
4.28171
21
-3.00957
0
LINE
8
BLACK
6
CONTINUOUS
10
4.28171
20
-3.00957
11
4.28835
21
-3.01036
0
LINE
8
BLACK
6
CONTINUOUS
10
4.28835
20
-3.01036
11
4.29465
21
-3.0126
0
LINE
8
BLACK
6
CONTINUOUS
10
4.29465
20
-3.0126
11
4.30029
21
-3.01619
0
LINE
8
BLACK
6
CONTINUOUS
10
4.30029
20
-3.01619
11
4.30501
21
-3.02093
0
LINE
8
BLACK
6
CONTINUOUS
10
4.30501
20
-3.02093
11
4.30855
21
-3.0266
0
LINE
8
BLACK
6
CONTINUOUS
10
4.30855
20
-3.0266
11
4.31075
21
-3.03292
0
LINE
8
BLACK
6
CONTINUOUS
10
4.31075
20
-3.03292
11
4.3115
21
-3.03957
0
LINE
8
BLACK
6
CONTINUOUS
10
4.3115
20
-3.03957
11
4.31148
21
-3.0404
0
LINE
8
BLACK
6
CONTINUOUS
10
4.31148
20
-3.0404
11
4.31055
21
-3.04703
0
LINE
8
BLACK
6
CONTINUOUS
10
4.31055
20
-3.04703
11
4.30818
21
-3.05328
0
LINE
8
BLACK
6
CONTINUOUS
10
4.30818
20
-3.05328
11
4.30448
21
-3.05885
0
LINE
8
BLACK
6
CONTINUOUS
10
4.30448
20
-3.05885
11
4.29963
21
-3.06346
0
LINE
8
BLACK
6
CONTINUOUS
10
4.29963
20
-3.06346
11
4.29389
21
-3.06689
0
LINE
8
BLACK
6
CONTINUOUS
10
4.29389
20
-3.06689
11
4.28753
21
-3.06895
0
LINE
8
BLACK
6
CONTINUOUS
10
4.28753
20
-3.06895
11
4.28087
21
-3.06956
0
LINE
8
BLACK
6
CONTINUOUS
10
4.28087
20
-3.06956
11
4.27424
21
-3.06868
0
LINE
8
BLACK
6
CONTINUOUS
10
4.27424
20
-3.06868
11
4.26797
21
-3.06634
0
LINE
8
BLACK
6
CONTINUOUS
10
4.26797
20
-3.06634
11
4.26237
21
-3.06268
0
LINE
8
BLACK
6
CONTINUOUS
10
4.26237
20
-3.06268
11
4.25773
21
-3.05787
0
LINE
8
BLACK
6
CONTINUOUS
10
4.25773
20
-3.05787
11
4.25426
21
-3.05215
0
LINE
8
BLACK
6
CONTINUOUS
10
4.25426
20
-3.05215
11
4.25335
21
-3.04941
0
LINE
8
BLACK
6
CONTINUOUS
10
4.25335
20
-3.04941
11
4.2464
21
-3.04941
0
LINE
8
BLACK
6
CONTINUOUS
10
4.2464
20
-3.04941
11
4.20118
21
-3.09463
0
LINE
8
BLACK
6
CONTINUOUS
10
4.20118
20
-3.09463
11
4.20118
21
-3.1408
0
LINE
8
BLACK
6
CONTINUOUS
10
4.20118
20
-3.1408
11
4.33176
21
-3.27139
0
LINE
8
BLACK
6
CONTINUOUS
10
4.33176
20
-3.27139
11
4.3339
21
-3.27458
0
LINE
8
BLACK
6
CONTINUOUS
10
4.3339
20
-3.27458
11
4.33465
21
-3.27835
0
LINE
8
BLACK
6
CONTINUOUS
10
4.33465
20
-3.27835
11
4.33465
21
-3.44789
0
LINE
8
BLACK
6
CONTINUOUS
10
4.33465
20
-3.44789
11
4.53164
21
-3.64488
0
LINE
8
BLACK
6
CONTINUOUS
10
4.53164
20
-3.64488
11
4.72191
21
-3.64488
0
LINE
8
BLACK
6
CONTINUOUS
10
4.72191
20
-3.64488
11
4.87008
21
-3.49671
0
LINE
8
BLACK
6
CONTINUOUS
10
4.87008
20
-3.49671
11
4.87008
21
-3.27573
0
LINE
8
BLACK
6
CONTINUOUS
10
4.87008
20
-3.27573
11
4.7786
21
-3.18425
0
LINE
8
BLACK
6
CONTINUOUS
10
4.7786
20
-3.18425
11
4.71353
21
-3.18425
0
LINE
8
BLACK
6
CONTINUOUS
10
4.71353
20
-3.18425
11
4.69677
21
-3.20101
0
LINE
8
BLACK
6
CONTINUOUS
10
4.69677
20
-3.20101
11
4.69677
21
-3.31268
0
LINE
8
BLACK
6
CONTINUOUS
10
4.69677
20
-3.31268
11
4.69826
21
-3.31417
0
LINE
8
BLACK
6
CONTINUOUS
10
4.69826
20
-3.31417
11
4.70847
21
-3.31417
0
LINE
8
BLACK
6
CONTINUOUS
10
4.70847
20
-3.31417
11
4.70974
21
-3.31068
0
LINE
8
BLACK
6
CONTINUOUS
10
4.70974
20
-3.31068
11
4.71337
21
-3.30505
0
LINE
8
BLACK
6
CONTINUOUS
10
4.71337
20
-3.30505
11
4.71814
21
-3.30038
0
LINE
8
BLACK
6
CONTINUOUS
10
4.71814
20
-3.30038
11
4.72384
21
-3.29687
0
LINE
8
BLACK
6
CONTINUOUS
10
4.72384
20
-3.29687
11
4.73017
21
-3.29472
0
LINE
8
BLACK
6
CONTINUOUS
10
4.73017
20
-3.29472
11
4.73682
21
-3.29402
0
LINE
8
BLACK
6
CONTINUOUS
10
4.73682
20
-3.29402
11
4.74346
21
-3.29481
0
LINE
8
BLACK
6
CONTINUOUS
10
4.74346
20
-3.29481
11
4.74977
21
-3.29705
0
LINE
8
BLACK
6
CONTINUOUS
10
4.74977
20
-3.29705
11
4.75541
21
-3.30064
0
LINE
8
BLACK
6
CONTINUOUS
10
4.75541
20
-3.30064
11
4.76012
21
-3.30538
0
LINE
8
BLACK
6
CONTINUOUS
10
4.76012
20
-3.30538
11
4.76367
21
-3.31105
0
LINE
8
BLACK
6
CONTINUOUS
10
4.76367
20
-3.31105
11
4.76587
21
-3.31737
0
LINE
8
BLACK
6
CONTINUOUS
10
4.76587
20
-3.31737
11
4.76661
21
-3.32402
0
LINE
8
BLACK
6
CONTINUOUS
10
4.76661
20
-3.32402
11
4.7666
21
-3.32485
0
LINE
8
BLACK
6
CONTINUOUS
10
4.7666
20
-3.32485
11
4.76567
21
-3.33148
0
LINE
8
BLACK
6
CONTINUOUS
10
4.76567
20
-3.33148
11
4.7633
21
-3.33773
0
LINE
8
BLACK
6
CONTINUOUS
10
4.7633
20
-3.33773
11
4.7596
21
-3.3433
0
LINE
8
BLACK
6
CONTINUOUS
10
4.7596
20
-3.3433
11
4.75475
21
-3.34791
0
LINE
8
BLACK
6
CONTINUOUS
10
4.75475
20
-3.34791
11
4.74901
21
-3.35134
0
LINE
8
BLACK
6
CONTINUOUS
10
4.74901
20
-3.35134
11
4.74265
21
-3.3534
0
LINE
8
BLACK
6
CONTINUOUS
10
4.74265
20
-3.3534
11
4.73599
21
-3.35401
0
LINE
8
BLACK
6
CONTINUOUS
10
4.73599
20
-3.35401
11
4.72936
21
-3.35312
0
LINE
8
BLACK
6
CONTINUOUS
10
4.72936
20
-3.35312
11
4.72309
21
-3.35079
0
LINE
8
BLACK
6
CONTINUOUS
10
4.72309
20
-3.35079
11
4.71749
21
-3.34713
0
LINE
8
BLACK
6
CONTINUOUS
10
4.71749
20
-3.34713
11
4.71285
21
-3.34232
0
LINE
8
BLACK
6
CONTINUOUS
10
4.71285
20
-3.34232
11
4.70938
21
-3.3366
0
LINE
8
BLACK
6
CONTINUOUS
10
4.70938
20
-3.3366
11
4.70847
21
-3.33386
0
LINE
8
BLACK
6
CONTINUOUS
10
4.70847
20
-3.33386
11
4.69419
21
-3.33386
0
LINE
8
BLACK
6
CONTINUOUS
10
4.69419
20
-3.33386
11
4.69419
21
-3.33386
0
LINE
8
BLACK
6
CONTINUOUS
10
4.69419
20
-3.33386
11
4.69042
21
-3.33311
0
LINE
8
BLACK
6
CONTINUOUS
10
4.69042
20
-3.33311
11
4.68723
21
-3.33098
0
LINE
8
BLACK
6
CONTINUOUS
10
4.68723
20
-3.33098
11
4.68723
21
-3.33098
0
LINE
8
BLACK
6
CONTINUOUS
10
4.68723
20
-3.33098
11
4.67997
21
-3.32372
0
LINE
8
BLACK
6
CONTINUOUS
10
4.67997
20
-3.32372
11
4.67784
21
-3.32052
0
LINE
8
BLACK
6
CONTINUOUS
10
4.67784
20
-3.32052
11
4.67709
21
-3.31676
0
LINE
8
BLACK
6
CONTINUOUS
10
4.67709
20
-3.31676
11
4.67709
21
-3.19693
0
LINE
8
BLACK
6
CONTINUOUS
10
4.67709
20
-3.19693
11
4.67784
21
-3.19316
0
LINE
8
BLACK
6
CONTINUOUS
10
4.67784
20
-3.19316
11
4.67997
21
-3.18997
0
LINE
8
BLACK
6
CONTINUOUS
10
4.67997
20
-3.18997
11
4.70249
21
-3.16745
0
LINE
8
BLACK
6
CONTINUOUS
10
4.70249
20
-3.16745
11
4.70568
21
-3.16532
0
LINE
8
BLACK
6
CONTINUOUS
10
4.70568
20
-3.16532
11
4.70945
21
-3.16457
0
LINE
8
BLACK
6
CONTINUOUS
10
4.70945
20
-3.16457
11
4.78268
21
-3.16457
0
LINE
8
BLACK
6
CONTINUOUS
10
4.78268
20
-3.16457
11
4.78644
21
-3.16532
0
LINE
8
BLACK
6
CONTINUOUS
10
4.78644
20
-3.16532
11
4.78964
21
-3.16745
0
LINE
8
BLACK
6
CONTINUOUS
10
4.7794
20
-3.23674
11
4.83334
21
-3.29068
0
LINE
8
BLACK
6
CONTINUOUS
10
4.83334
20
-3.29068
11
4.83334
21
-3.29068
0
LINE
8
BLACK
6
CONTINUOUS
10
4.83334
20
-3.29068
11
4.83377
21
-3.29132
0
LINE
8
BLACK
6
CONTINUOUS
10
4.83377
20
-3.29132
11
4.83547
21
-3.29387
0
LINE
8
BLACK
6
CONTINUOUS
10
4.83547
20
-3.29387
11
4.83622
21
-3.29764
0
LINE
8
BLACK
6
CONTINUOUS
10
4.83622
20
-3.29764
11
4.83622
21
-3.29764
0
LINE
8
BLACK
6
CONTINUOUS
10
4.83622
20
-3.29764
11
4.83622
21
-3.49764
0
LINE
8
BLACK
6
CONTINUOUS
10
4.83622
20
-3.49764
11
4.83622
21
-3.49764
0
LINE
8
BLACK
6
CONTINUOUS
10
4.83622
20
-3.49764
11
4.83559
21
-3.50079
0
LINE
8
BLACK
6
CONTINUOUS
10
4.83559
20
-3.50079
11
4.83547
21
-3.5014
0
LINE
8
BLACK
6
CONTINUOUS
10
4.83547
20
-3.5014
11
4.83334
21
-3.5046
0
LINE
8
BLACK
6
CONTINUOUS
10
4.83334
20
-3.5046
11
4.83334
21
-3.5046
0
LINE
8
BLACK
6
CONTINUOUS
10
4.83334
20
-3.5046
11
4.71838
21
-3.61956
0
LINE
8
BLACK
6
CONTINUOUS
10
4.71838
20
-3.61956
11
4.71518
21
-3.62169
0
LINE
8
BLACK
6
CONTINUOUS
10
4.71518
20
-3.62169
11
4.71142
21
-3.62244
0
LINE
8
BLACK
6
CONTINUOUS
10
4.71142
20
-3.62244
11
4.62205
21
-3.62244
0
LINE
8
BLACK
6
CONTINUOUS
10
4.62205
20
-3.62244
11
4.62205
21
-3.62244
0
LINE
8
BLACK
6
CONTINUOUS
10
4.62205
20
-3.62244
11
4.61828
21
-3.62169
0
LINE
8
BLACK
6
CONTINUOUS
10
4.61828
20
-3.62169
11
4.61685
21
-3.62073
0
LINE
8
BLACK
6
CONTINUOUS
10
4.61685
20
-3.62073
11
4.61509
21
-3.61956
0
LINE
8
BLACK
6
CONTINUOUS
10
4.61509
20
-3.61956
11
4.61509
21
-3.61956
0
LINE
8
BLACK
6
CONTINUOUS
10
4.61509
20
-3.61956
11
4.42178
21
-3.42625
0
LINE
8
BLACK
6
CONTINUOUS
10
4.42178
20
-3.42625
11
4.41965
21
-3.42306
0
LINE
8
BLACK
6
CONTINUOUS
10
4.41965
20
-3.42306
11
4.4189
21
-3.41929
0
LINE
8
BLACK
6
CONTINUOUS
10
4.4189
20
-3.41929
11
4.4189
21
-3.32179
0
LINE
8
BLACK
6
CONTINUOUS
10
4.4189
20
-3.32179
11
4.27454
21
-3.17743
0
LINE
8
BLACK
6
CONTINUOUS
10
4.27454
20
-3.17743
11
4.2724
21
-3.17424
0
LINE
8
BLACK
6
CONTINUOUS
10
4.2724
20
-3.17424
11
4.27165
21
-3.17047
0
LINE
8
BLACK
6
CONTINUOUS
10
4.27165
20
-3.17047
11
4.27165
21
-3.14988
0
LINE
8
BLACK
6
CONTINUOUS
10
4.27165
20
-3.14988
11
4.2515
21
-3.14988
0
LINE
8
BLACK
6
CONTINUOUS
10
4.2515
20
-3.14988
11
4.2515
21
-3.08988
0
LINE
8
BLACK
6
CONTINUOUS
10
4.2515
20
-3.08988
11
4.3115
21
-3.08988
0
LINE
8
BLACK
6
CONTINUOUS
10
4.3115
20
-3.08988
11
4.3115
21
-3.14988
0
LINE
8
BLACK
6
CONTINUOUS
10
4.3115
20
-3.14988
11
4.29134
21
-3.14988
0
LINE
8
BLACK
6
CONTINUOUS
10
4.29134
20
-3.14988
11
4.29134
21
-3.1664
0
LINE
8
BLACK
6
CONTINUOUS
10
4.29134
20
-3.1664
11
4.4357
21
-3.31076
0
LINE
8
BLACK
6
CONTINUOUS
10
4.4357
20
-3.31076
11
4.4357
21
-3.31076
0
LINE
8
BLACK
6
CONTINUOUS
10
4.4357
20
-3.31076
11
4.43736
21
-3.31325
0
LINE
8
BLACK
6
CONTINUOUS
10
4.43736
20
-3.31325
11
4.43783
21
-3.31395
0
LINE
8
BLACK
6
CONTINUOUS
10
4.43783
20
-3.31395
11
4.43858
21
-3.31772
0
LINE
8
BLACK
6
CONTINUOUS
10
4.43858
20
-3.31772
11
4.43858
21
-3.31772
0
LINE
8
BLACK
6
CONTINUOUS
10
4.43858
20
-3.31772
11
4.43858
21
-3.41521
0
LINE
8
BLACK
6
CONTINUOUS
10
4.43858
20
-3.41521
11
4.62612
21
-3.60276
0
LINE
8
BLACK
6
CONTINUOUS
10
4.62612
20
-3.60276
11
4.70734
21
-3.60276
0
LINE
8
BLACK
6
CONTINUOUS
10
4.70734
20
-3.60276
11
4.81654
21
-3.49356
0
LINE
8
BLACK
6
CONTINUOUS
10
4.81654
20
-3.49356
11
4.81654
21
-3.30171
0
LINE
8
BLACK
6
CONTINUOUS
10
4.81654
20
-3.30171
11
4.76836
21
-3.25354
0
LINE
8
BLACK
6
CONTINUOUS
10
4.76836
20
-3.25354
11
4.76661
21
-3.25354
0
LINE
8
BLACK
6
CONTINUOUS
10
4.76661
20
-3.25354
11
4.76661
21
-3.2737
0
LINE
8
BLACK
6
CONTINUOUS
10
4.76661
20
-3.2737
11
4.70661
21
-3.2737
0
LINE
8
BLACK
6
CONTINUOUS
10
4.70661
20
-3.2737
11
4.70661
21
-3.2137
0
LINE
8
BLACK
6
CONTINUOUS
10
4.70661
20
-3.2137
11
4.76661
21
-3.2137
0
LINE
8
BLACK
6
CONTINUOUS
10
4.76661
20
-3.2137
11
4.76661
21
-3.23386
0
LINE
8
BLACK
6
CONTINUOUS
10
4.76661
20
-3.23386
11
4.77244
21
-3.23386
0
LINE
8
BLACK
6
CONTINUOUS
10
4.77244
20
-3.23386
11
4.77621
21
-3.23461
0
LINE
8
BLACK
6
CONTINUOUS
10
4.77621
20
-3.23461
11
4.7794
21
-3.23674
0
LINE
8
BLACK
6
CONTINUOUS
10
4.64346
20
-3.4956
11
4.64977
21
-3.49784
0
LINE
8
BLACK
6
CONTINUOUS
10
4.64977
20
-3.49784
11
4.65541
21
-3.50142
0
LINE
8
BLACK
6
CONTINUOUS
10
4.65541
20
-3.50142
11
4.66012
21
-3.50617
0
LINE
8
BLACK
6
CONTINUOUS
10
4.66012
20
-3.50617
11
4.66367
21
-3.51184
0
LINE
8
BLACK
6
CONTINUOUS
10
4.66367
20
-3.51184
11
4.66587
21
-3.51816
0
LINE
8
BLACK
6
CONTINUOUS
10
4.66587
20
-3.51816
11
4.66661
21
-3.5248
0
LINE
8
BLACK
6
CONTINUOUS
10
4.66661
20
-3.5248
11
4.6666
21
-3.52564
0
LINE
8
BLACK
6
CONTINUOUS
10
4.6666
20
-3.52564
11
4.66567
21
-3.53226
0
LINE
8
BLACK
6
CONTINUOUS
10
4.66567
20
-3.53226
11
4.6633
21
-3.53852
0
LINE
8
BLACK
6
CONTINUOUS
10
4.6633
20
-3.53852
11
4.6596
21
-3.54409
0
LINE
8
BLACK
6
CONTINUOUS
10
4.6596
20
-3.54409
11
4.65475
21
-3.5487
0
LINE
8
BLACK
6
CONTINUOUS
10
4.65475
20
-3.5487
11
4.64901
21
-3.55212
0
LINE
8
BLACK
6
CONTINUOUS
10
4.64901
20
-3.55212
11
4.64265
21
-3.55419
0
LINE
8
BLACK
6
CONTINUOUS
10
4.64265
20
-3.55419
11
4.63599
21
-3.5548
0
LINE
8
BLACK
6
CONTINUOUS
10
4.63599
20
-3.5548
11
4.62936
21
-3.55391
0
LINE
8
BLACK
6
CONTINUOUS
10
4.62936
20
-3.55391
11
4.62309
21
-3.55158
0
LINE
8
BLACK
6
CONTINUOUS
10
4.62309
20
-3.55158
11
4.61749
21
-3.54792
0
LINE
8
BLACK
6
CONTINUOUS
10
4.61749
20
-3.54792
11
4.61285
21
-3.54311
0
LINE
8
BLACK
6
CONTINUOUS
10
4.61285
20
-3.54311
11
4.60938
21
-3.53739
0
LINE
8
BLACK
6
CONTINUOUS
10
4.60938
20
-3.53739
11
4.60727
21
-3.53104
0
LINE
8
BLACK
6
CONTINUOUS
10
4.60727
20
-3.53104
11
4.60662
21
-3.52438
0
LINE
8
BLACK
6
CONTINUOUS
10
4.60662
20
-3.52438
11
4.60746
21
-3.51775
0
LINE
8
BLACK
6
CONTINUOUS
10
4.60746
20
-3.51775
11
4.60974
21
-3.51146
0
LINE
8
BLACK
6
CONTINUOUS
10
4.60974
20
-3.51146
11
4.61337
21
-3.50584
0
LINE
8
BLACK
6
CONTINUOUS
10
4.61337
20
-3.50584
11
4.61814
21
-3.50116
0
LINE
8
BLACK
6
CONTINUOUS
10
4.61814
20
-3.50116
11
4.62384
21
-3.49766
0
LINE
8
BLACK
6
CONTINUOUS
10
4.62384
20
-3.49766
11
4.63017
21
-3.4955
0
LINE
8
BLACK
6
CONTINUOUS
10
4.63017
20
-3.4955
11
4.63682
21
-3.4948
0
LINE
8
BLACK
6
CONTINUOUS
10
4.63682
20
-3.4948
11
4.64346
21
-3.4956
0
LINE
8
BLACK
6
CONTINUOUS
10
4.74346
20
-3.45544
11
4.74977
21
-3.45768
0
LINE
8
BLACK
6
CONTINUOUS
10
4.74977
20
-3.45768
11
4.75541
21
-3.46127
0
LINE
8
BLACK
6
CONTINUOUS
10
4.75541
20
-3.46127
11
4.76012
21
-3.46601
0
LINE
8
BLACK
6
CONTINUOUS
10
4.76012
20
-3.46601
11
4.76367
21
-3.47168
0
LINE
8
BLACK
6
CONTINUOUS
10
4.76367
20
-3.47168
11
4.76587
21
-3.478
0
LINE
8
BLACK
6
CONTINUOUS
10
4.76587
20
-3.478
11
4.76661
21
-3.48465
0
LINE
8
BLACK
6
CONTINUOUS
10
4.76661
20
-3.48465
11
4.7666
21
-3.48548
0
LINE
8
BLACK
6
CONTINUOUS
10
4.7666
20
-3.48548
11
4.76567
21
-3.49211
0
LINE
8
BLACK
6
CONTINUOUS
10
4.76567
20
-3.49211
11
4.7633
21
-3.49836
0
LINE
8
BLACK
6
CONTINUOUS
10
4.7633
20
-3.49836
11
4.7596
21
-3.50393
0
LINE
8
BLACK
6
CONTINUOUS
10
4.7596
20
-3.50393
11
4.75475
21
-3.50854
0
LINE
8
BLACK
6
CONTINUOUS
10
4.75475
20
-3.50854
11
4.74901
21
-3.51197
0
LINE
8
BLACK
6
CONTINUOUS
10
4.74901
20
-3.51197
11
4.74265
21
-3.51403
0
LINE
8
BLACK
6
CONTINUOUS
10
4.74265
20
-3.51403
11
4.73599
21
-3.51464
0
LINE
8
BLACK
6
CONTINUOUS
10
4.73599
20
-3.51464
11
4.72936
21
-3.51375
0
LINE
8
BLACK
6
CONTINUOUS
10
4.72936
20
-3.51375
11
4.72309
21
-3.51142
0
LINE
8
BLACK
6
CONTINUOUS
10
4.72309
20
-3.51142
11
4.71749
21
-3.50776
0
LINE
8
BLACK
6
CONTINUOUS
10
4.71749
20
-3.50776
11
4.71285
21
-3.50295
0
LINE
8
BLACK
6
CONTINUOUS
10
4.71285
20
-3.50295
11
4.70938
21
-3.49723
0
LINE
8
BLACK
6
CONTINUOUS
10
4.70938
20
-3.49723
11
4.70727
21
-3.49088
0
LINE
8
BLACK
6
CONTINUOUS
10
4.70727
20
-3.49088
11
4.70662
21
-3.48423
0
LINE
8
BLACK
6
CONTINUOUS
10
4.70662
20
-3.48423
11
4.70746
21
-3.47759
0
LINE
8
BLACK
6
CONTINUOUS
10
4.70746
20
-3.47759
11
4.70974
21
-3.47131
0
LINE
8
BLACK
6
CONTINUOUS
10
4.70974
20
-3.47131
11
4.71337
21
-3.46568
0
LINE
8
BLACK
6
CONTINUOUS
10
4.71337
20
-3.46568
11
4.71814
21
-3.46101
0
LINE
8
BLACK
6
CONTINUOUS
10
4.71814
20
-3.46101
11
4.72384
21
-3.4575
0
LINE
8
BLACK
6
CONTINUOUS
10
4.72384
20
-3.4575
11
4.73017
21
-3.45535
0
LINE
8
BLACK
6
CONTINUOUS
10
4.73017
20
-3.45535
11
4.73682
21
-3.45465
0
LINE
8
BLACK
6
CONTINUOUS
10
4.73682
20
-3.45465
11
4.74346
21
-3.45544
0
LINE
8
BLACK
6
CONTINUOUS
10
4.38835
20
-2.88989
11
4.39465
21
-2.89213
0
LINE
8
BLACK
6
CONTINUOUS
10
4.39465
20
-2.89213
11
4.40029
21
-2.89571
0
LINE
8
BLACK
6
CONTINUOUS
10
4.40029
20
-2.89571
11
4.40501
21
-2.90046
0
LINE
8
BLACK
6
CONTINUOUS
10
4.40501
20
-2.90046
11
4.40855
21
-2.90613
0
LINE
8
BLACK
6
CONTINUOUS
10
4.40855
20
-2.90613
11
4.41075
21
-2.91245
0
LINE
8
BLACK
6
CONTINUOUS
10
4.41075
20
-2.91245
11
4.4115
21
-2.91909
0
LINE
8
BLACK
6
CONTINUOUS
10
4.4115
20
-2.91909
11
4.41148
21
-2.91993
0
LINE
8
BLACK
6
CONTINUOUS
10
4.41148
20
-2.91993
11
4.41055
21
-2.92656
0
LINE
8
BLACK
6
CONTINUOUS
10
4.41055
20
-2.92656
11
4.40818
21
-2.93281
0
LINE
8
BLACK
6
CONTINUOUS
10
4.40818
20
-2.93281
11
4.40448
21
-2.93838
0
LINE
8
BLACK
6
CONTINUOUS
10
4.40448
20
-2.93838
11
4.39963
21
-2.94299
0
LINE
8
BLACK
6
CONTINUOUS
10
4.39963
20
-2.94299
11
4.39389
21
-2.94642
0
LINE
8
BLACK
6
CONTINUOUS
10
4.39389
20
-2.94642
11
4.38753
21
-2.94848
0
LINE
8
BLACK
6
CONTINUOUS
10
4.38753
20
-2.94848
11
4.38087
21
-2.94909
0
LINE
8
BLACK
6
CONTINUOUS
10
4.38087
20
-2.94909
11
4.37424
21
-2.9482
0
LINE
8
BLACK
6
CONTINUOUS
10
4.37424
20
-2.9482
11
4.36846
21
-2.94605
0
LINE
8
BLACK
6
CONTINUOUS
10
4.36846
20
-2.94605
11
4.34102
21
-2.97349
0
LINE
8
BLACK
6
CONTINUOUS
10
4.34102
20
-2.97349
11
4.34102
21
-3.12159
0
LINE
8
BLACK
6
CONTINUOUS
10
4.34102
20
-3.12159
11
4.48176
21
-3.26233
0
LINE
8
BLACK
6
CONTINUOUS
10
4.48176
20
-3.26233
11
4.4839
21
-3.26552
0
LINE
8
BLACK
6
CONTINUOUS
10
4.4839
20
-3.26552
11
4.48465
21
-3.26929
0
LINE
8
BLACK
6
CONTINUOUS
10
4.48465
20
-3.26929
11
4.48465
21
-3.32506
0
LINE
8
BLACK
6
CONTINUOUS
10
4.48465
20
-3.32506
11
4.59423
21
-3.43465
0
LINE
8
BLACK
6
CONTINUOUS
10
4.59423
20
-3.43465
11
4.60847
21
-3.43465
0
LINE
8
BLACK
6
CONTINUOUS
10
4.60847
20
-3.43465
11
4.60974
21
-3.43115
0
LINE
8
BLACK
6
CONTINUOUS
10
4.60974
20
-3.43115
11
4.61337
21
-3.42553
0
LINE
8
BLACK
6
CONTINUOUS
10
4.61337
20
-3.42553
11
4.61814
21
-3.42085
0
LINE
8
BLACK
6
CONTINUOUS
10
4.61814
20
-3.42085
11
4.62384
21
-3.41734
0
LINE
8
BLACK
6
CONTINUOUS
10
4.62384
20
-3.41734
11
4.63017
21
-3.41519
0
LINE
8
BLACK
6
CONTINUOUS
10
4.63017
20
-3.41519
11
4.63682
21
-3.41449
0
LINE
8
BLACK
6
CONTINUOUS
10
4.63682
20
-3.41449
11
4.64346
21
-3.41528
0
LINE
8
BLACK
6
CONTINUOUS
10
4.64346
20
-3.41528
11
4.64977
21
-3.41752
0
LINE
8
BLACK
6
CONTINUOUS
10
4.64977
20
-3.41752
11
4.65541
21
-3.42111
0
LINE
8
BLACK
6
CONTINUOUS
10
4.65541
20
-3.42111
11
4.66012
21
-3.42585
0
LINE
8
BLACK
6
CONTINUOUS
10
4.66012
20
-3.42585
11
4.66367
21
-3.43153
0
LINE
8
BLACK
6
CONTINUOUS
10
4.66367
20
-3.43153
11
4.66587
21
-3.43784
0
LINE
8
BLACK
6
CONTINUOUS
10
4.66587
20
-3.43784
11
4.66661
21
-3.44449
0
LINE
8
BLACK
6
CONTINUOUS
10
4.66661
20
-3.44449
11
4.6666
21
-3.44533
0
LINE
8
BLACK
6
CONTINUOUS
10
4.6666
20
-3.44533
11
4.66567
21
-3.45195
0
LINE
8
BLACK
6
CONTINUOUS
10
4.66567
20
-3.45195
11
4.6633
21
-3.4582
0
LINE
8
BLACK
6
CONTINUOUS
10
4.6633
20
-3.4582
11
4.6596
21
-3.46377
0
LINE
8
BLACK
6
CONTINUOUS
10
4.6596
20
-3.46377
11
4.65475
21
-3.46838
0
LINE
8
BLACK
6
CONTINUOUS
10
4.65475
20
-3.46838
11
4.64901
21
-3.47181
0
LINE
8
BLACK
6
CONTINUOUS
10
4.64901
20
-3.47181
11
4.64265
21
-3.47388
0
LINE
8
BLACK
6
CONTINUOUS
10
4.64265
20
-3.47388
11
4.63599
21
-3.47448
0
LINE
8
BLACK
6
CONTINUOUS
10
4.63599
20
-3.47448
11
4.62936
21
-3.4736
0
LINE
8
BLACK
6
CONTINUOUS
10
4.62936
20
-3.4736
11
4.62309
21
-3.47127
0
LINE
8
BLACK
6
CONTINUOUS
10
4.62309
20
-3.47127
11
4.61749
21
-3.4676
0
LINE
8
BLACK
6
CONTINUOUS
10
4.61749
20
-3.4676
11
4.61285
21
-3.46279
0
LINE
8
BLACK
6
CONTINUOUS
10
4.61285
20
-3.46279
11
4.60938
21
-3.45707
0
LINE
8
BLACK
6
CONTINUOUS
10
4.60938
20
-3.45707
11
4.60847
21
-3.45433
0
LINE
8
BLACK
6
CONTINUOUS
10
4.60847
20
-3.45433
11
4.59016
21
-3.45433
0
LINE
8
BLACK
6
CONTINUOUS
10
4.59016
20
-3.45433
11
4.59016
21
-3.45433
0
LINE
8
BLACK
6
CONTINUOUS
10
4.59016
20
-3.45433
11
4.58639
21
-3.45358
0
LINE
8
BLACK
6
CONTINUOUS
10
4.58639
20
-3.45358
11
4.5832
21
-3.45145
0
LINE
8
BLACK
6
CONTINUOUS
10
4.5832
20
-3.45145
11
4.46784
21
-3.33609
0
LINE
8
BLACK
6
CONTINUOUS
10
4.46784
20
-3.33609
11
4.46571
21
-3.3329
0
LINE
8
BLACK
6
CONTINUOUS
10
4.46571
20
-3.3329
11
4.46496
21
-3.32913
0
LINE
8
BLACK
6
CONTINUOUS
10
4.46496
20
-3.32913
11
4.46496
21
-3.27337
0
LINE
8
BLACK
6
CONTINUOUS
10
4.46496
20
-3.27337
11
4.32422
21
-3.13263
0
LINE
8
BLACK
6
CONTINUOUS
10
4.32422
20
-3.13263
11
4.32209
21
-3.12944
0
LINE
8
BLACK
6
CONTINUOUS
10
4.32209
20
-3.12944
11
4.32134
21
-3.12567
0
LINE
8
BLACK
6
CONTINUOUS
10
4.32134
20
-3.12567
11
4.32134
21
-2.96941
0
LINE
8
BLACK
6
CONTINUOUS
10
4.32134
20
-2.96941
11
4.32209
21
-2.96564
0
LINE
8
BLACK
6
CONTINUOUS
10
4.32209
20
-2.96564
11
4.32422
21
-2.96245
0
LINE
8
BLACK
6
CONTINUOUS
10
4.32422
20
-2.96245
11
4.35454
21
-2.93213
0
LINE
8
BLACK
6
CONTINUOUS
10
4.35454
20
-2.93213
11
4.35426
21
-2.93168
0
LINE
8
BLACK
6
CONTINUOUS
10
4.35426
20
-2.93168
11
4.35215
21
-2.92533
0
LINE
8
BLACK
6
CONTINUOUS
10
4.35215
20
-2.92533
11
4.3515
21
-2.91868
0
LINE
8
BLACK
6
CONTINUOUS
10
4.3515
20
-2.91868
11
4.35234
21
-2.91204
0
LINE
8
BLACK
6
CONTINUOUS
10
4.35234
20
-2.91204
11
4.35462
21
-2.90576
0
LINE
8
BLACK
6
CONTINUOUS
10
4.35462
20
-2.90576
11
4.35825
21
-2.90013
0
LINE
8
BLACK
6
CONTINUOUS
10
4.35825
20
-2.90013
11
4.36303
21
-2.89545
0
LINE
8
BLACK
6
CONTINUOUS
10
4.36303
20
-2.89545
11
4.36872
21
-2.89195
0
LINE
8
BLACK
6
CONTINUOUS
10
4.36872
20
-2.89195
11
4.37505
21
-2.88979
0
LINE
8
BLACK
6
CONTINUOUS
10
4.37505
20
-2.88979
11
4.38171
21
-2.8891
0
LINE
8
BLACK
6
CONTINUOUS
10
4.38171
20
-2.8891
11
4.38835
21
-2.88989
0
LINE
8
BLACK
6
CONTINUOUS
10
4.74346
20
-3.37512
11
4.74977
21
-3.37737
0
LINE
8
BLACK
6
CONTINUOUS
10
4.74977
20
-3.37737
11
4.75541
21
-3.38095
0
LINE
8
BLACK
6
CONTINUOUS
10
4.75541
20
-3.38095
11
4.76012
21
-3.3857
0
LINE
8
BLACK
6
CONTINUOUS
10
4.76012
20
-3.3857
11
4.76367
21
-3.39137
0
LINE
8
BLACK
6
CONTINUOUS
10
4.76367
20
-3.39137
11
4.76587
21
-3.39768
0
LINE
8
BLACK
6
CONTINUOUS
10
4.76587
20
-3.39768
11
4.76661
21
-3.40433
0
LINE
8
BLACK
6
CONTINUOUS
10
4.76661
20
-3.40433
11
4.7666
21
-3.40517
0
LINE
8
BLACK
6
CONTINUOUS
10
4.7666
20
-3.40517
11
4.76567
21
-3.41179
0
LINE
8
BLACK
6
CONTINUOUS
10
4.76567
20
-3.41179
11
4.7633
21
-3.41804
0
LINE
8
BLACK
6
CONTINUOUS
10
4.7633
20
-3.41804
11
4.7596
21
-3.42361
0
LINE
8
BLACK
6
CONTINUOUS
10
4.7596
20
-3.42361
11
4.75475
21
-3.42823
0
LINE
8
BLACK
6
CONTINUOUS
10
4.75475
20
-3.42823
11
4.74901
21
-3.43165
0
LINE
8
BLACK
6
CONTINUOUS
10
4.74901
20
-3.43165
11
4.74265
21
-3.43372
0
LINE
8
BLACK
6
CONTINUOUS
10
4.74265
20
-3.43372
11
4.73599
21
-3.43432
0
LINE
8
BLACK
6
CONTINUOUS
10
4.73599
20
-3.43432
11
4.72936
21
-3.43344
0
LINE
8
BLACK
6
CONTINUOUS
10
4.72936
20
-3.43344
11
4.72309
21
-3.43111
0
LINE
8
BLACK
6
CONTINUOUS
10
4.72309
20
-3.43111
11
4.71749
21
-3.42745
0
LINE
8
BLACK
6
CONTINUOUS
10
4.71749
20
-3.42745
11
4.71285
21
-3.42264
0
LINE
8
BLACK
6
CONTINUOUS
10
4.71285
20
-3.42264
11
4.70938
21
-3.41691
0
LINE
8
BLACK
6
CONTINUOUS
10
4.70938
20
-3.41691
11
4.70727
21
-3.41057
0
LINE
8
BLACK
6
CONTINUOUS
10
4.70727
20
-3.41057
11
4.70662
21
-3.40391
0
LINE
8
BLACK
6
CONTINUOUS
10
4.70662
20
-3.40391
11
4.70746
21
-3.39728
0
LINE
8
BLACK
6
CONTINUOUS
10
4.70746
20
-3.39728
11
4.70974
21
-3.39099
0
LINE
8
BLACK
6
CONTINUOUS
10
4.70974
20
-3.39099
11
4.71337
21
-3.38537
0
LINE
8
BLACK
6
CONTINUOUS
10
4.71337
20
-3.38537
11
4.71814
21
-3.38069
0
LINE
8
BLACK
6
CONTINUOUS
10
4.71814
20
-3.38069
11
4.72384
21
-3.37719
0
LINE
8
BLACK
6
CONTINUOUS
10
4.72384
20
-3.37719
11
4.73017
21
-3.37503
0
LINE
8
BLACK
6
CONTINUOUS
10
4.73017
20
-3.37503
11
4.73682
21
-3.37433
0
LINE
8
BLACK
6
CONTINUOUS
10
4.73682
20
-3.37433
11
4.74346
21
-3.37512
0
LINE
8
BLACK
6
CONTINUOUS
10
4.64346
20
-3.33497
11
4.64977
21
-3.33721
0
LINE
8
BLACK
6
CONTINUOUS
10
4.64977
20
-3.33721
11
4.65541
21
-3.34079
0
LINE
8
BLACK
6
CONTINUOUS
10
4.65541
20
-3.34079
11
4.66012
21
-3.34554
0
LINE
8
BLACK
6
CONTINUOUS
10
4.66012
20
-3.34554
11
4.66367
21
-3.35121
0
LINE
8
BLACK
6
CONTINUOUS
10
4.66367
20
-3.35121
11
4.66587
21
-3.35753
0
LINE
8
BLACK
6
CONTINUOUS
10
4.66587
20
-3.35753
11
4.66661
21
-3.36417
0
LINE
8
BLACK
6
CONTINUOUS
10
4.66661
20
-3.36417
11
4.6666
21
-3.36501
0
LINE
8
BLACK
6
CONTINUOUS
10
4.6666
20
-3.36501
11
4.66567
21
-3.37163
0
LINE
8
BLACK
6
CONTINUOUS
10
4.66567
20
-3.37163
11
4.6633
21
-3.37789
0
LINE
8
BLACK
6
CONTINUOUS
10
4.6633
20
-3.37789
11
4.6596
21
-3.38346
0
LINE
8
BLACK
6
CONTINUOUS
10
4.6596
20
-3.38346
11
4.65475
21
-3.38807
0
LINE
8
BLACK
6
CONTINUOUS
10
4.65475
20
-3.38807
11
4.64901
21
-3.39149
0
LINE
8
BLACK
6
CONTINUOUS
10
4.64901
20
-3.39149
11
4.64265
21
-3.39356
0
LINE
8
BLACK
6
CONTINUOUS
10
4.64265
20
-3.39356
11
4.63599
21
-3.39417
0
LINE
8
BLACK
6
CONTINUOUS
10
4.63599
20
-3.39417
11
4.62936
21
-3.39328
0
LINE
8
BLACK
6
CONTINUOUS
10
4.62936
20
-3.39328
11
4.62309
21
-3.39095
0
LINE
8
BLACK
6
CONTINUOUS
10
4.62309
20
-3.39095
11
4.61749
21
-3.38729
0
LINE
8
BLACK
6
CONTINUOUS
10
4.61749
20
-3.38729
11
4.61285
21
-3.38248
0
LINE
8
BLACK
6
CONTINUOUS
10
4.61285
20
-3.38248
11
4.60938
21
-3.37676
0
LINE
8
BLACK
6
CONTINUOUS
10
4.60938
20
-3.37676
11
4.60727
21
-3.37041
0
LINE
8
BLACK
6
CONTINUOUS
10
4.60727
20
-3.37041
11
4.60662
21
-3.36375
0
LINE
8
BLACK
6
CONTINUOUS
10
4.60662
20
-3.36375
11
4.60746
21
-3.35712
0
LINE
8
BLACK
6
CONTINUOUS
10
4.60746
20
-3.35712
11
4.60974
21
-3.35083
0
LINE
8
BLACK
6
CONTINUOUS
10
4.60974
20
-3.35083
11
4.61337
21
-3.34521
0
LINE
8
BLACK
6
CONTINUOUS
10
4.61337
20
-3.34521
11
4.61814
21
-3.34053
0
LINE
8
BLACK
6
CONTINUOUS
10
4.61814
20
-3.34053
11
4.62384
21
-3.33703
0
LINE
8
BLACK
6
CONTINUOUS
10
4.62384
20
-3.33703
11
4.63017
21
-3.33487
0
LINE
8
BLACK
6
CONTINUOUS
10
4.63017
20
-3.33487
11
4.63682
21
-3.33417
0
LINE
8
BLACK
6
CONTINUOUS
10
4.63682
20
-3.33417
11
4.64346
21
-3.33497
0
LINE
8
BLACK
6
CONTINUOUS
10
4.1965
20
-3.21581
11
4.20603
21
-3.21751
0
LINE
8
BLACK
6
CONTINUOUS
10
4.20603
20
-3.21751
11
4.21515
21
-3.22074
0
LINE
8
BLACK
6
CONTINUOUS
10
4.21515
20
-3.22074
11
4.22363
21
-3.22542
0
LINE
8
BLACK
6
CONTINUOUS
10
4.22363
20
-3.22542
11
4.23122
21
-3.23142
0
LINE
8
BLACK
6
CONTINUOUS
10
4.23122
20
-3.23142
11
4.23773
21
-3.23857
0
LINE
8
BLACK
6
CONTINUOUS
10
4.23773
20
-3.23857
11
4.24299
21
-3.2467
0
LINE
8
BLACK
6
CONTINUOUS
10
4.24299
20
-3.2467
11
4.24685
21
-3.25557
0
LINE
8
BLACK
6
CONTINUOUS
10
4.24685
20
-3.25557
11
4.24921
21
-3.26496
0
LINE
8
BLACK
6
CONTINUOUS
10
4.24921
20
-3.26496
11
4.25
21
-3.27461
0
LINE
8
BLACK
6
CONTINUOUS
10
4.25
20
-3.27461
11
4.24993
21
-3.27749
0
LINE
8
BLACK
6
CONTINUOUS
10
4.24993
20
-3.27749
11
4.24867
21
-3.28709
0
LINE
8
BLACK
6
CONTINUOUS
10
4.24867
20
-3.28709
11
4.24585
21
-3.29635
0
LINE
8
BLACK
6
CONTINUOUS
10
4.24585
20
-3.29635
11
4.24156
21
-3.30502
0
LINE
8
BLACK
6
CONTINUOUS
10
4.24156
20
-3.30502
11
4.23592
21
-3.31288
0
LINE
8
BLACK
6
CONTINUOUS
10
4.23592
20
-3.31288
11
4.22906
21
-3.31971
0
LINE
8
BLACK
6
CONTINUOUS
10
4.22906
20
-3.31971
11
4.22118
21
-3.32533
0
LINE
8
BLACK
6
CONTINUOUS
10
4.22118
20
-3.32533
11
4.21249
21
-3.32959
0
LINE
8
BLACK
6
CONTINUOUS
10
4.21249
20
-3.32959
11
4.20322
21
-3.33237
0
LINE
8
BLACK
6
CONTINUOUS
10
4.20322
20
-3.33237
11
4.19362
21
-3.3336
0
LINE
8
BLACK
6
CONTINUOUS
10
4.19362
20
-3.3336
11
4.18395
21
-3.33325
0
LINE
8
BLACK
6
CONTINUOUS
10
4.18395
20
-3.33325
11
4.17447
21
-3.33132
0
LINE
8
BLACK
6
CONTINUOUS
10
4.17447
20
-3.33132
11
4.16543
21
-3.32786
0
LINE
8
BLACK
6
CONTINUOUS
10
4.16543
20
-3.32786
11
4.15707
21
-3.32298
0
LINE
8
BLACK
6
CONTINUOUS
10
4.15707
20
-3.32298
11
4.14963
21
-3.3168
0
LINE
8
BLACK
6
CONTINUOUS
10
4.14963
20
-3.3168
11
4.14329
21
-3.30948
0
LINE
8
BLACK
6
CONTINUOUS
10
4.14329
20
-3.30948
11
4.13823
21
-3.30123
0
LINE
8
BLACK
6
CONTINUOUS
10
4.13823
20
-3.30123
11
4.13459
21
-3.29227
0
LINE
8
BLACK
6
CONTINUOUS
10
4.13459
20
-3.29227
11
4.13246
21
-3.28283
0
LINE
8
BLACK
6
CONTINUOUS
10
4.13246
20
-3.28283
11
4.13191
21
-3.27316
0
LINE
8
BLACK
6
CONTINUOUS
10
4.13191
20
-3.27316
11
4.13294
21
-3.26354
0
LINE
8
BLACK
6
CONTINUOUS
10
4.13294
20
-3.26354
11
4.13552
21
-3.25421
0
LINE
8
BLACK
6
CONTINUOUS
10
4.13552
20
-3.25421
11
4.1396
21
-3.24544
0
LINE
8
BLACK
6
CONTINUOUS
10
4.1396
20
-3.24544
11
4.14505
21
-3.23744
0
LINE
8
BLACK
6
CONTINUOUS
10
4.14505
20
-3.23744
11
4.15174
21
-3.23045
0
LINE
8
BLACK
6
CONTINUOUS
10
4.15174
20
-3.23045
11
4.15948
21
-3.22463
0
LINE
8
BLACK
6
CONTINUOUS
10
4.15948
20
-3.22463
11
4.16806
21
-3.22017
0
LINE
8
BLACK
6
CONTINUOUS
10
4.16806
20
-3.22017
11
4.17726
21
-3.21716
0
LINE
8
BLACK
6
CONTINUOUS
10
4.17726
20
-3.21716
11
4.18683
21
-3.2157
0
LINE
8
BLACK
6
CONTINUOUS
10
4.18683
20
-3.2157
11
4.1965
21
-3.21581
0
LINE
8
BLACK
6
CONTINUOUS
10
4.38835
20
-3.05052
11
4.39465
21
-3.05276
0
LINE
8
BLACK
6
CONTINUOUS
10
4.39465
20
-3.05276
11
4.40029
21
-3.05634
0
LINE
8
BLACK
6
CONTINUOUS
10
4.40029
20
-3.05634
11
4.40501
21
-3.06109
0
LINE
8
BLACK
6
CONTINUOUS
10
4.40501
20
-3.06109
11
4.40855
21
-3.06676
0
LINE
8
BLACK
6
CONTINUOUS
10
4.40855
20
-3.06676
11
4.41075
21
-3.07308
0
LINE
8
BLACK
6
CONTINUOUS
10
4.41075
20
-3.07308
11
4.4115
21
-3.07972
0
LINE
8
BLACK
6
CONTINUOUS
10
4.4115
20
-3.07972
11
4.41148
21
-3.08056
0
LINE
8
BLACK
6
CONTINUOUS
10
4.41148
20
-3.08056
11
4.41055
21
-3.08719
0
LINE
8
BLACK
6
CONTINUOUS
10
4.41055
20
-3.08719
11
4.40844
21
-3.09275
0
LINE
8
BLACK
6
CONTINUOUS
10
4.40844
20
-3.09275
11
4.58971
21
-3.27402
0
LINE
8
BLACK
6
CONTINUOUS
10
4.58971
20
-3.27402
11
4.60847
21
-3.27402
0
LINE
8
BLACK
6
CONTINUOUS
10
4.60847
20
-3.27402
11
4.60974
21
-3.27052
0
LINE
8
BLACK
6
CONTINUOUS
10
4.60974
20
-3.27052
11
4.61337
21
-3.2649
0
LINE
8
BLACK
6
CONTINUOUS
10
4.61337
20
-3.2649
11
4.61814
21
-3.26022
0
LINE
8
BLACK
6
CONTINUOUS
10
4.61814
20
-3.26022
11
4.62384
21
-3.25671
0
LINE
8
BLACK
6
CONTINUOUS
10
4.62384
20
-3.25671
11
4.63017
21
-3.25456
0
LINE
8
BLACK
6
CONTINUOUS
10
4.63017
20
-3.25456
11
4.63682
21
-3.25386
0
LINE
8
BLACK
6
CONTINUOUS
10
4.63682
20
-3.25386
11
4.64346
21
-3.25465
0
LINE
8
BLACK
6
CONTINUOUS
10
4.64346
20
-3.25465
11
4.64977
21
-3.25689
0
LINE
8
BLACK
6
CONTINUOUS
10
4.64977
20
-3.25689
11
4.65541
21
-3.26048
0
LINE
8
BLACK
6
CONTINUOUS
10
4.65541
20
-3.26048
11
4.66012
21
-3.26522
0
LINE
8
BLACK
6
CONTINUOUS
10
4.66012
20
-3.26522
11
4.66367
21
-3.2709
0
LINE
8
BLACK
6
CONTINUOUS
10
4.66367
20
-3.2709
11
4.66587
21
-3.27721
0
LINE
8
BLACK
6
CONTINUOUS
10
4.66587
20
-3.27721
11
4.66661
21
-3.28386
0
LINE
8
BLACK
6
CONTINUOUS
10
4.66661
20
-3.28386
11
4.6666
21
-3.2847
0
LINE
8
BLACK
6
CONTINUOUS
10
4.6666
20
-3.2847
11
4.66567
21
-3.29132
0
LINE
8
BLACK
6
CONTINUOUS
10
4.66567
20
-3.29132
11
4.6633
21
-3.29757
0
LINE
8
BLACK
6
CONTINUOUS
10
4.6633
20
-3.29757
11
4.6596
21
-3.30314
0
LINE
8
BLACK
6
CONTINUOUS
10
4.6596
20
-3.30314
11
4.65475
21
-3.30775
0
LINE
8
BLACK
6
CONTINUOUS
10
4.65475
20
-3.30775
11
4.64901
21
-3.31118
0
LINE
8
BLACK
6
CONTINUOUS
10
4.64901
20
-3.31118
11
4.64265
21
-3.31325
0
LINE
8
BLACK
6
CONTINUOUS
10
4.64265
20
-3.31325
11
4.63599
21
-3.31385
0
LINE
8
BLACK
6
CONTINUOUS
10
4.63599
20
-3.31385
11
4.62936
21
-3.31297
0
LINE
8
BLACK
6
CONTINUOUS
10
4.62936
20
-3.31297
11
4.62309
21
-3.31064
0
LINE
8
BLACK
6
CONTINUOUS
10
4.62309
20
-3.31064
11
4.61749
21
-3.30697
0
LINE
8
BLACK
6
CONTINUOUS
10
4.61749
20
-3.30697
11
4.61285
21
-3.30216
0
LINE
8
BLACK
6
CONTINUOUS
10
4.61285
20
-3.30216
11
4.60938
21
-3.29644
0
LINE
8
BLACK
6
CONTINUOUS
10
4.60938
20
-3.29644
11
4.60847
21
-3.2937
0
LINE
8
BLACK
6
CONTINUOUS
10
4.60847
20
-3.2937
11
4.58563
21
-3.2937
0
LINE
8
BLACK
6
CONTINUOUS
10
4.58563
20
-3.2937
11
4.58186
21
-3.29295
0
LINE
8
BLACK
6
CONTINUOUS
10
4.58186
20
-3.29295
11
4.57867
21
-3.29082
0
LINE
8
BLACK
6
CONTINUOUS
10
4.57867
20
-3.29082
11
4.57867
21
-3.29082
0
LINE
8
BLACK
6
CONTINUOUS
10
4.57867
20
-3.29082
11
4.39452
21
-3.10667
0
LINE
8
BLACK
6
CONTINUOUS
10
4.39452
20
-3.10667
11
4.39389
21
-3.10704
0
LINE
8
BLACK
6
CONTINUOUS
10
4.39389
20
-3.10704
11
4.38753
21
-3.10911
0
LINE
8
BLACK
6
CONTINUOUS
10
4.38753
20
-3.10911
11
4.38087
21
-3.10972
0
LINE
8
BLACK
6
CONTINUOUS
10
4.38087
20
-3.10972
11
4.37424
21
-3.10883
0
LINE
8
BLACK
6
CONTINUOUS
10
4.37424
20
-3.10883
11
4.36797
21
-3.1065
0
LINE
8
BLACK
6
CONTINUOUS
10
4.36797
20
-3.1065
11
4.36237
21
-3.10284
0
LINE
8
BLACK
6
CONTINUOUS
10
4.36237
20
-3.10284
11
4.35773
21
-3.09803
0
LINE
8
BLACK
6
CONTINUOUS
10
4.35773
20
-3.09803
11
4.35426
21
-3.09231
0
LINE
8
BLACK
6
CONTINUOUS
10
4.35426
20
-3.09231
11
4.35215
21
-3.08596
0
LINE
8
BLACK
6
CONTINUOUS
10
4.35215
20
-3.08596
11
4.3515
21
-3.07931
0
LINE
8
BLACK
6
CONTINUOUS
10
4.3515
20
-3.07931
11
4.35234
21
-3.07267
0
LINE
8
BLACK
6
CONTINUOUS
10
4.35234
20
-3.07267
11
4.35462
21
-3.06639
0
LINE
8
BLACK
6
CONTINUOUS
10
4.35462
20
-3.06639
11
4.35825
21
-3.06076
0
LINE
8
BLACK
6
CONTINUOUS
10
4.35825
20
-3.06076
11
4.36303
21
-3.05608
0
LINE
8
BLACK
6
CONTINUOUS
10
4.36303
20
-3.05608
11
4.36872
21
-3.05258
0
LINE
8
BLACK
6
CONTINUOUS
10
4.36872
20
-3.05258
11
4.37505
21
-3.05042
0
LINE
8
BLACK
6
CONTINUOUS
10
4.37505
20
-3.05042
11
4.38171
21
-3.04973
0
LINE
8
BLACK
6
CONTINUOUS
10
4.38171
20
-3.04973
11
4.38835
21
-3.05052
0
LINE
8
BLACK
6
CONTINUOUS
10
4.83272
20
-3.03018
11
4.84225
21
-3.03188
0
LINE
8
BLACK
6
CONTINUOUS
10
4.84225
20
-3.03188
11
4.85137
21
-3.03511
0
LINE
8
BLACK
6
CONTINUOUS
10
4.85137
20
-3.03511
11
4.85985
21
-3.03979
0
LINE
8
BLACK
6
CONTINUOUS
10
4.85985
20
-3.03979
11
4.86744
21
-3.04579
0
LINE
8
BLACK
6
CONTINUOUS
10
4.86744
20
-3.04579
11
4.87395
21
-3.05294
0
LINE
8
BLACK
6
CONTINUOUS
10
4.87395
20
-3.05294
11
4.87921
21
-3.06107
0
LINE
8
BLACK
6
CONTINUOUS
10
4.87921
20
-3.06107
11
4.88307
21
-3.06994
0
LINE
8
BLACK
6
CONTINUOUS
10
4.88307
20
-3.06994
11
4.88543
21
-3.07933
0
LINE
8
BLACK
6
CONTINUOUS
10
4.88543
20
-3.07933
11
4.88622
21
-3.08898
0
LINE
8
BLACK
6
CONTINUOUS
10
4.88622
20
-3.08898
11
4.88615
21
-3.09186
0
LINE
8
BLACK
6
CONTINUOUS
10
4.88615
20
-3.09186
11
4.88489
21
-3.10146
0
LINE
8
BLACK
6
CONTINUOUS
10
4.88489
20
-3.10146
11
4.88207
21
-3.11072
0
LINE
8
BLACK
6
CONTINUOUS
10
4.88207
20
-3.11072
11
4.87779
21
-3.11939
0
LINE
8
BLACK
6
CONTINUOUS
10
4.87779
20
-3.11939
11
4.87214
21
-3.12725
0
LINE
8
BLACK
6
CONTINUOUS
10
4.87214
20
-3.12725
11
4.86528
21
-3.13408
0
LINE
8
BLACK
6
CONTINUOUS
10
4.86528
20
-3.13408
11
4.8574
21
-3.1397
0
LINE
8
BLACK
6
CONTINUOUS
10
4.8574
20
-3.1397
11
4.84871
21
-3.14396
0
LINE
8
BLACK
6
CONTINUOUS
10
4.84871
20
-3.14396
11
4.83944
21
-3.14674
0
LINE
8
BLACK
6
CONTINUOUS
10
4.83944
20
-3.14674
11
4.82984
21
-3.14797
0
LINE
8
BLACK
6
CONTINUOUS
10
4.82984
20
-3.14797
11
4.82017
21
-3.14762
0
LINE
8
BLACK
6
CONTINUOUS
10
4.82017
20
-3.14762
11
4.81069
21
-3.14569
0
LINE
8
BLACK
6
CONTINUOUS
10
4.81069
20
-3.14569
11
4.80165
21
-3.14223
0
LINE
8
BLACK
6
CONTINUOUS
10
4.80165
20
-3.14223
11
4.79329
21
-3.13735
0
LINE
8
BLACK
6
CONTINUOUS
10
4.79329
20
-3.13735
11
4.78585
21
-3.13117
0
LINE
8
BLACK
6
CONTINUOUS
10
4.78585
20
-3.13117
11
4.77951
21
-3.12385
0
LINE
8
BLACK
6
CONTINUOUS
10
4.77951
20
-3.12385
11
4.77445
21
-3.1156
0
LINE
8
BLACK
6
CONTINUOUS
10
4.77445
20
-3.1156
11
4.77081
21
-3.10664
0
LINE
8
BLACK
6
CONTINUOUS
10
4.77081
20
-3.10664
11
4.76868
21
-3.0972
0
LINE
8
BLACK
6
CONTINUOUS
10
4.76868
20
-3.0972
11
4.76813
21
-3.08753
0
LINE
8
BLACK
6
CONTINUOUS
10
4.76813
20
-3.08753
11
4.76916
21
-3.07791
0
LINE
8
BLACK
6
CONTINUOUS
10
4.76916
20
-3.07791
11
4.77174
21
-3.06858
0
LINE
8
BLACK
6
CONTINUOUS
10
4.77174
20
-3.06858
11
4.77582
21
-3.05981
0
LINE
8
BLACK
6
CONTINUOUS
10
4.77582
20
-3.05981
11
4.78127
21
-3.05181
0
LINE
8
BLACK
6
CONTINUOUS
10
4.78127
20
-3.05181
11
4.78796
21
-3.04482
0
LINE
8
BLACK
6
CONTINUOUS
10
4.78796
20
-3.04482
11
4.7957
21
-3.039
0
LINE
8
BLACK
6
CONTINUOUS
10
4.7957
20
-3.039
11
4.80428
21
-3.03454
0
LINE
8
BLACK
6
CONTINUOUS
10
4.80428
20
-3.03454
11
4.81348
21
-3.03153
0
LINE
8
BLACK
6
CONTINUOUS
10
4.81348
20
-3.03153
11
4.82305
21
-3.03007
0
LINE
8
BLACK
6
CONTINUOUS
10
4.82305
20
-3.03007
11
4.83272
21
-3.03018
0
LINE
8
BLACK
6
CONTINUOUS
10
4.40818
20
-3.01312
11
4.40448
21
-3.01869
0
LINE
8
BLACK
6
CONTINUOUS
10
4.40448
20
-3.01869
11
4.39963
21
-3.02331
0
LINE
8
BLACK
6
CONTINUOUS
10
4.39963
20
-3.02331
11
4.39389
21
-3.02673
0
LINE
8
BLACK
6
CONTINUOUS
10
4.39389
20
-3.02673
11
4.38753
21
-3.0288
0
LINE
8
BLACK
6
CONTINUOUS
10
4.38753
20
-3.0288
11
4.38087
21
-3.0294
0
LINE
8
BLACK
6
CONTINUOUS
10
4.38087
20
-3.0294
11
4.37424
21
-3.02852
0
LINE
8
BLACK
6
CONTINUOUS
10
4.37424
20
-3.02852
11
4.36797
21
-3.02619
0
LINE
8
BLACK
6
CONTINUOUS
10
4.36797
20
-3.02619
11
4.36237
21
-3.02252
0
LINE
8
BLACK
6
CONTINUOUS
10
4.36237
20
-3.02252
11
4.35773
21
-3.01771
0
LINE
8
BLACK
6
CONTINUOUS
10
4.35773
20
-3.01771
11
4.35426
21
-3.01199
0
LINE
8
BLACK
6
CONTINUOUS
10
4.35426
20
-3.01199
11
4.35215
21
-3.00565
0
LINE
8
BLACK
6
CONTINUOUS
10
4.35215
20
-3.00565
11
4.3515
21
-2.99899
0
LINE
8
BLACK
6
CONTINUOUS
10
4.3515
20
-2.99899
11
4.35234
21
-2.99236
0
LINE
8
BLACK
6
CONTINUOUS
10
4.35234
20
-2.99236
11
4.35462
21
-2.98607
0
LINE
8
BLACK
6
CONTINUOUS
10
4.35462
20
-2.98607
11
4.35825
21
-2.98045
0
LINE
8
BLACK
6
CONTINUOUS
10
4.35825
20
-2.98045
11
4.36303
21
-2.97577
0
LINE
8
BLACK
6
CONTINUOUS
10
4.36303
20
-2.97577
11
4.36872
21
-2.97226
0
LINE
8
BLACK
6
CONTINUOUS
10
4.36872
20
-2.97226
11
4.37505
21
-2.97011
0
LINE
8
BLACK
6
CONTINUOUS
10
4.37505
20
-2.97011
11
4.38171
21
-2.96941
0
LINE
8
BLACK
6
CONTINUOUS
10
4.38171
20
-2.96941
11
4.38835
21
-2.9702
0
LINE
8
BLACK
6
CONTINUOUS
10
4.38835
20
-2.9702
11
4.39465
21
-2.97245
0
LINE
8
BLACK
6
CONTINUOUS
10
4.39465
20
-2.97245
11
4.40029
21
-2.97603
0
LINE
8
BLACK
6
CONTINUOUS
10
4.40029
20
-2.97603
11
4.40501
21
-2.98077
0
LINE
8
BLACK
6
CONTINUOUS
10
4.40501
20
-2.98077
11
4.40855
21
-2.98645
0
LINE
8
BLACK
6
CONTINUOUS
10
4.40855
20
-2.98645
11
4.40964
21
-2.98957
0
LINE
8
BLACK
6
CONTINUOUS
10
4.40964
20
-2.98957
11
4.52053
21
-2.98957
0
LINE
8
BLACK
6
CONTINUOUS
10
4.52053
20
-2.98957
11
4.67921
21
-2.83088
0
LINE
8
BLACK
6
CONTINUOUS
10
4.67921
20
-2.83088
11
4.67921
21
-2.56085
0
LINE
8
BLACK
6
CONTINUOUS
10
4.67921
20
-2.56085
11
4.65239
21
-2.53403
0
LINE
8
BLACK
6
CONTINUOUS
10
4.65239
20
-2.53403
11
4.65176
21
-2.53441
0
LINE
8
BLACK
6
CONTINUOUS
10
4.65176
20
-2.53441
11
4.6454
21
-2.53647
0
LINE
8
BLACK
6
CONTINUOUS
10
4.6454
20
-2.53647
11
4.63874
21
-2.53708
0
LINE
8
BLACK
6
CONTINUOUS
10
4.63874
20
-2.53708
11
4.63211
21
-2.5362
0
LINE
8
BLACK
6
CONTINUOUS
10
4.63211
20
-2.5362
11
4.62584
21
-2.53386
0
LINE
8
BLACK
6
CONTINUOUS
10
4.62584
20
-2.53386
11
4.62025
21
-2.5302
0
LINE
8
BLACK
6
CONTINUOUS
10
4.62025
20
-2.5302
11
4.6156
21
-2.52539
0
LINE
8
BLACK
6
CONTINUOUS
10
4.6156
20
-2.52539
11
4.61214
21
-2.51967
0
LINE
8
BLACK
6
CONTINUOUS
10
4.61214
20
-2.51967
11
4.61003
21
-2.51332
0
LINE
8
BLACK
6
CONTINUOUS
10
4.61003
20
-2.51332
11
4.60937
21
-2.50667
0
LINE
8
BLACK
6
CONTINUOUS
10
4.60937
20
-2.50667
11
4.61021
21
-2.50003
0
LINE
8
BLACK
6
CONTINUOUS
10
4.61021
20
-2.50003
11
4.6125
21
-2.49375
0
LINE
8
BLACK
6
CONTINUOUS
10
4.6125
20
-2.49375
11
4.61612
21
-2.48813
0
LINE
8
BLACK
6
CONTINUOUS
10
4.61612
20
-2.48813
11
4.6209
21
-2.48345
0
LINE
8
BLACK
6
CONTINUOUS
10
4.6209
20
-2.48345
11
4.6266
21
-2.47994
0
LINE
8
BLACK
6
CONTINUOUS
10
4.6266
20
-2.47994
11
4.63293
21
-2.47779
0
LINE
8
BLACK
6
CONTINUOUS
10
4.63293
20
-2.47779
11
4.63958
21
-2.47709
0
LINE
8
BLACK
6
CONTINUOUS
10
4.63958
20
-2.47709
11
4.64622
21
-2.47788
0
LINE
8
BLACK
6
CONTINUOUS
10
4.64622
20
-2.47788
11
4.65252
21
-2.48012
0
LINE
8
BLACK
6
CONTINUOUS
10
4.65252
20
-2.48012
11
4.65817
21
-2.48371
0
LINE
8
BLACK
6
CONTINUOUS
10
4.65817
20
-2.48371
11
4.66288
21
-2.48845
0
LINE
8
BLACK
6
CONTINUOUS
10
4.66288
20
-2.48845
11
4.66643
21
-2.49412
0
LINE
8
BLACK
6
CONTINUOUS
10
4.66643
20
-2.49412
11
4.66862
21
-2.50044
0
LINE
8
BLACK
6
CONTINUOUS
10
4.66862
20
-2.50044
11
4.66937
21
-2.50709
0
LINE
8
BLACK
6
CONTINUOUS
10
4.66937
20
-2.50709
11
4.66936
21
-2.50792
0
LINE
8
BLACK
6
CONTINUOUS
10
4.66936
20
-2.50792
11
4.66843
21
-2.51455
0
LINE
8
BLACK
6
CONTINUOUS
10
4.66843
20
-2.51455
11
4.66631
21
-2.52011
0
LINE
8
BLACK
6
CONTINUOUS
10
4.66631
20
-2.52011
11
4.69601
21
-2.54981
0
LINE
8
BLACK
6
CONTINUOUS
10
4.69601
20
-2.54981
11
4.69601
21
-2.54981
0
LINE
8
BLACK
6
CONTINUOUS
10
4.69601
20
-2.54981
11
4.69815
21
-2.55301
0
LINE
8
BLACK
6
CONTINUOUS
10
4.69815
20
-2.55301
11
4.69815
21
-2.55301
0
LINE
8
BLACK
6
CONTINUOUS
10
4.69815
20
-2.55301
11
4.6989
21
-2.55677
0
LINE
8
BLACK
6
CONTINUOUS
10
4.6989
20
-2.55677
11
4.6989
21
-2.55677
0
LINE
8
BLACK
6
CONTINUOUS
10
4.6989
20
-2.55677
11
4.6989
21
-2.83496
0
LINE
8
BLACK
6
CONTINUOUS
10
4.6989
20
-2.83496
11
4.69815
21
-2.83873
0
LINE
8
BLACK
6
CONTINUOUS
10
4.69815
20
-2.83873
11
4.69601
21
-2.84192
0
LINE
8
BLACK
6
CONTINUOUS
10
4.69601
20
-2.84192
11
4.53157
21
-3.00637
0
LINE
8
BLACK
6
CONTINUOUS
10
4.53157
20
-3.00637
11
4.52837
21
-3.0085
0
LINE
8
BLACK
6
CONTINUOUS
10
4.52837
20
-3.0085
11
4.52461
21
-3.00925
0
LINE
8
BLACK
6
CONTINUOUS
10
4.52461
20
-3.00925
11
4.40965
21
-3.00925
0
LINE
8
BLACK
6
CONTINUOUS
10
4.40965
20
-3.00925
11
4.40818
21
-3.01312
0
LINE
8
BLACK
6
CONTINUOUS
10
4.69904
20
-2.41374
11
4.70224
21
-2.41587
0
LINE
8
BLACK
6
CONTINUOUS
10
4.70224
20
-2.41587
11
4.72329
21
-2.43693
0
LINE
8
BLACK
6
CONTINUOUS
10
4.72329
20
-2.43693
11
4.76937
21
-2.43693
0
LINE
8
BLACK
6
CONTINUOUS
10
4.76937
20
-2.43693
11
4.76937
21
-2.49693
0
LINE
8
BLACK
6
CONTINUOUS
10
4.76937
20
-2.49693
11
4.70937
21
-2.49693
0
LINE
8
BLACK
6
CONTINUOUS
10
4.70937
20
-2.49693
11
4.70937
21
-2.45085
0
LINE
8
BLACK
6
CONTINUOUS
10
4.70937
20
-2.45085
11
4.6912
21
-2.43268
0
LINE
8
BLACK
6
CONTINUOUS
10
4.6912
20
-2.43268
11
4.6025
21
-2.43268
0
LINE
8
BLACK
6
CONTINUOUS
10
4.6025
20
-2.43268
11
4.55039
21
-2.48479
0
LINE
8
BLACK
6
CONTINUOUS
10
4.55039
20
-2.48479
11
4.55039
21
-2.58018
0
LINE
8
BLACK
6
CONTINUOUS
10
4.55039
20
-2.58018
11
4.55039
21
-2.58018
0
LINE
8
BLACK
6
CONTINUOUS
10
4.55039
20
-2.58018
11
4.54964
21
-2.58395
0
LINE
8
BLACK
6
CONTINUOUS
10
4.54964
20
-2.58395
11
4.54751
21
-2.58714
0
LINE
8
BLACK
6
CONTINUOUS
10
4.54751
20
-2.58714
11
4.34102
21
-2.79363
0
LINE
8
BLACK
6
CONTINUOUS
10
4.34102
20
-2.79363
11
4.34102
21
-2.90957
0
LINE
8
BLACK
6
CONTINUOUS
10
4.34102
20
-2.90957
11
4.34102
21
-2.90957
0
LINE
8
BLACK
6
CONTINUOUS
10
4.34102
20
-2.90957
11
4.34045
21
-2.91245
0
LINE
8
BLACK
6
CONTINUOUS
10
4.34045
20
-2.91245
11
4.34027
21
-2.91333
0
LINE
8
BLACK
6
CONTINUOUS
10
4.34027
20
-2.91333
11
4.33814
21
-2.91653
0
LINE
8
BLACK
6
CONTINUOUS
10
4.33814
20
-2.91653
11
4.33814
21
-2.91653
0
LINE
8
BLACK
6
CONTINUOUS
10
4.33814
20
-2.91653
11
4.30848
21
-2.94618
0
LINE
8
BLACK
6
CONTINUOUS
10
4.30848
20
-2.94618
11
4.30855
21
-2.94629
0
LINE
8
BLACK
6
CONTINUOUS
10
4.30855
20
-2.94629
11
4.31075
21
-2.95261
0
LINE
8
BLACK
6
CONTINUOUS
10
4.31075
20
-2.95261
11
4.3115
21
-2.95925
0
LINE
8
BLACK
6
CONTINUOUS
10
4.3115
20
-2.95925
11
4.31148
21
-2.96009
0
LINE
8
BLACK
6
CONTINUOUS
10
4.31148
20
-2.96009
11
4.31055
21
-2.96671
0
LINE
8
BLACK
6
CONTINUOUS
10
4.31055
20
-2.96671
11
4.30818
21
-2.97296
0
LINE
8
BLACK
6
CONTINUOUS
10
4.30818
20
-2.97296
11
4.30448
21
-2.97854
0
LINE
8
BLACK
6
CONTINUOUS
10
4.30448
20
-2.97854
11
4.29963
21
-2.98315
0
LINE
8
BLACK
6
CONTINUOUS
10
4.29963
20
-2.98315
11
4.29389
21
-2.98657
0
LINE
8
BLACK
6
CONTINUOUS
10
4.29389
20
-2.98657
11
4.28753
21
-2.98864
0
LINE
8
BLACK
6
CONTINUOUS
10
4.28753
20
-2.98864
11
4.28087
21
-2.98925
0
LINE
8
BLACK
6
CONTINUOUS
10
4.28087
20
-2.98925
11
4.27424
21
-2.98836
0
LINE
8
BLACK
6
CONTINUOUS
10
4.27424
20
-2.98836
11
4.26797
21
-2.98603
0
LINE
8
BLACK
6
CONTINUOUS
10
4.26797
20
-2.98603
11
4.26237
21
-2.98237
0
LINE
8
BLACK
6
CONTINUOUS
10
4.26237
20
-2.98237
11
4.25773
21
-2.97756
0
LINE
8
BLACK
6
CONTINUOUS
10
4.25773
20
-2.97756
11
4.25426
21
-2.97184
0
LINE
8
BLACK
6
CONTINUOUS
10
4.25426
20
-2.97184
11
4.25215
21
-2.96549
0
LINE
8
BLACK
6
CONTINUOUS
10
4.25215
20
-2.96549
11
4.2515
21
-2.95883
0
LINE
8
BLACK
6
CONTINUOUS
10
4.2515
20
-2.95883
11
4.25234
21
-2.9522
0
LINE
8
BLACK
6
CONTINUOUS
10
4.25234
20
-2.9522
11
4.25462
21
-2.94591
0
LINE
8
BLACK
6
CONTINUOUS
10
4.25462
20
-2.94591
11
4.25825
21
-2.94029
0
LINE
8
BLACK
6
CONTINUOUS
10
4.25825
20
-2.94029
11
4.26303
21
-2.93561
0
LINE
8
BLACK
6
CONTINUOUS
10
4.26303
20
-2.93561
11
4.26872
21
-2.93211
0
LINE
8
BLACK
6
CONTINUOUS
10
4.26872
20
-2.93211
11
4.27505
21
-2.92995
0
LINE
8
BLACK
6
CONTINUOUS
10
4.27505
20
-2.92995
11
4.28171
21
-2.92925
0
LINE
8
BLACK
6
CONTINUOUS
10
4.28171
20
-2.92925
11
4.28835
21
-2.93004
0
LINE
8
BLACK
6
CONTINUOUS
10
4.28835
20
-2.93004
11
4.29457
21
-2.93226
0
LINE
8
BLACK
6
CONTINUOUS
10
4.29457
20
-2.93226
11
4.32134
21
-2.90549
0
LINE
8
BLACK
6
CONTINUOUS
10
4.32134
20
-2.90549
11
4.32134
21
-2.78955
0
LINE
8
BLACK
6
CONTINUOUS
10
4.32134
20
-2.78955
11
4.32209
21
-2.78579
0
LINE
8
BLACK
6
CONTINUOUS
10
4.32209
20
-2.78579
11
4.32422
21
-2.78259
0
LINE
8
BLACK
6
CONTINUOUS
10
4.32422
20
-2.78259
11
4.53071
21
-2.57611
0
LINE
8
BLACK
6
CONTINUOUS
10
4.53071
20
-2.57611
11
4.53071
21
-2.48071
0
LINE
8
BLACK
6
CONTINUOUS
10
4.53071
20
-2.48071
11
4.53146
21
-2.47694
0
LINE
8
BLACK
6
CONTINUOUS
10
4.53146
20
-2.47694
11
4.53359
21
-2.47375
0
LINE
8
BLACK
6
CONTINUOUS
10
4.53359
20
-2.47375
11
4.59147
21
-2.41587
0
LINE
8
BLACK
6
CONTINUOUS
10
4.59147
20
-2.41587
11
4.59466
21
-2.41374
0
LINE
8
BLACK
6
CONTINUOUS
10
4.59466
20
-2.41374
11
4.59843
21
-2.41299
0
LINE
8
BLACK
6
CONTINUOUS
10
4.59843
20
-2.41299
11
4.69528
21
-2.41299
0
LINE
8
BLACK
6
CONTINUOUS
10
4.69528
20
-2.41299
11
4.69904
21
-2.41374
0
LINE
8
BLACK
6
CONTINUOUS
10
4.83548
20
-2.84396
11
4.84501
21
-2.84566
0
LINE
8
BLACK
6
CONTINUOUS
10
4.84501
20
-2.84566
11
4.85413
21
-2.84889
0
LINE
8
BLACK
6
CONTINUOUS
10
4.85413
20
-2.84889
11
4.8626
21
-2.85357
0
LINE
8
BLACK
6
CONTINUOUS
10
4.8626
20
-2.85357
11
4.8702
21
-2.85957
0
LINE
8
BLACK
6
CONTINUOUS
10
4.8702
20
-2.85957
11
4.87671
21
-2.86672
0
LINE
8
BLACK
6
CONTINUOUS
10
4.87671
20
-2.86672
11
4.88197
21
-2.87485
0
LINE
8
BLACK
6
CONTINUOUS
10
4.88197
20
-2.87485
11
4.88583
21
-2.88372
0
LINE
8
BLACK
6
CONTINUOUS
10
4.88583
20
-2.88372
11
4.88818
21
-2.89311
0
LINE
8
BLACK
6
CONTINUOUS
10
4.88818
20
-2.89311
11
4.88898
21
-2.90276
0
LINE
8
BLACK
6
CONTINUOUS
10
4.88898
20
-2.90276
11
4.88891
21
-2.90564
0
LINE
8
BLACK
6
CONTINUOUS
10
4.88891
20
-2.90564
11
4.88764
21
-2.91524
0
LINE
8
BLACK
6
CONTINUOUS
10
4.88764
20
-2.91524
11
4.88483
21
-2.9245
0
LINE
8
BLACK
6
CONTINUOUS
10
4.88483
20
-2.9245
11
4.88054
21
-2.93317
0
LINE
8
BLACK
6
CONTINUOUS
10
4.88054
20
-2.93317
11
4.87489
21
-2.94103
0
LINE
8
BLACK
6
CONTINUOUS
10
4.87489
20
-2.94103
11
4.86804
21
-2.94786
0
LINE
8
BLACK
6
CONTINUOUS
10
4.86804
20
-2.94786
11
4.86016
21
-2.95348
0
LINE
8
BLACK
6
CONTINUOUS
10
4.86016
20
-2.95348
11
4.85147
21
-2.95774
0
LINE
8
BLACK
6
CONTINUOUS
10
4.85147
20
-2.95774
11
4.8422
21
-2.96052
0
LINE
8
BLACK
6
CONTINUOUS
10
4.8422
20
-2.96052
11
4.8326
21
-2.96175
0
LINE
8
BLACK
6
CONTINUOUS
10
4.8326
20
-2.96175
11
4.82293
21
-2.9614
0
LINE
8
BLACK
6
CONTINUOUS
10
4.82293
20
-2.9614
11
4.81345
21
-2.95947
0
LINE
8
BLACK
6
CONTINUOUS
10
4.81345
20
-2.95947
11
4.8044
21
-2.95601
0
LINE
8
BLACK
6
CONTINUOUS
10
4.8044
20
-2.95601
11
4.79605
21
-2.95113
0
LINE
8
BLACK
6
CONTINUOUS
10
4.79605
20
-2.95113
11
4.7886
21
-2.94495
0
LINE
8
BLACK
6
CONTINUOUS
10
4.7886
20
-2.94495
11
4.78227
21
-2.93763
0
LINE
8
BLACK
6
CONTINUOUS
10
4.78227
20
-2.93763
11
4.77721
21
-2.92938
0
LINE
8
BLACK
6
CONTINUOUS
10
4.77721
20
-2.92938
11
4.77357
21
-2.92042
0
LINE
8
BLACK
6
CONTINUOUS
10
4.77357
20
-2.92042
11
4.77144
21
-2.91097
0
LINE
8
BLACK
6
CONTINUOUS
10
4.77144
20
-2.91097
11
4.77088
21
-2.90131
0
LINE
8
BLACK
6
CONTINUOUS
10
4.77088
20
-2.90131
11
4.77191
21
-2.89169
0
LINE
8
BLACK
6
CONTINUOUS
10
4.77191
20
-2.89169
11
4.7745
21
-2.88236
0
LINE
8
BLACK
6
CONTINUOUS
10
4.7745
20
-2.88236
11
4.77857
21
-2.87359
0
LINE
8
BLACK
6
CONTINUOUS
10
4.77857
20
-2.87359
11
4.78403
21
-2.86559
0
LINE
8
BLACK
6
CONTINUOUS
10
4.78403
20
-2.86559
11
4.79071
21
-2.85859
0
LINE
8
BLACK
6
CONTINUOUS
10
4.79071
20
-2.85859
11
4.79845
21
-2.85278
0
LINE
8
BLACK
6
CONTINUOUS
10
4.79845
20
-2.85278
11
4.80704
21
-2.84832
0
LINE
8
BLACK
6
CONTINUOUS
10
4.80704
20
-2.84832
11
4.81624
21
-2.84531
0
LINE
8
BLACK
6
CONTINUOUS
10
4.81624
20
-2.84531
11
4.8258
21
-2.84384
0
LINE
8
BLACK
6
CONTINUOUS
10
4.8258
20
-2.84384
11
4.83548
21
-2.84396
0
LINE
8
BLACK
6
CONTINUOUS
10
4.75302
20
-2.36154
11
4.83964
21
-2.44816
0
LINE
8
BLACK
6
CONTINUOUS
10
4.83964
20
-2.44816
11
4.84177
21
-2.45135
0
LINE
8
BLACK
6
CONTINUOUS
10
4.84177
20
-2.45135
11
4.84252
21
-2.45512
0
LINE
8
BLACK
6
CONTINUOUS
10
4.84252
20
-2.45512
11
4.84252
21
-2.45512
0
LINE
8
BLACK
6
CONTINUOUS
10
4.84252
20
-2.45512
11
4.84252
21
-2.50906
0
LINE
8
BLACK
6
CONTINUOUS
10
4.84252
20
-2.50906
11
4.84177
21
-2.51282
0
LINE
8
BLACK
6
CONTINUOUS
10
4.84177
20
-2.51282
11
4.83964
21
-2.51601
0
LINE
8
BLACK
6
CONTINUOUS
10
4.83964
20
-2.51601
11
4.80145
21
-2.5542
0
LINE
8
BLACK
6
CONTINUOUS
10
4.80145
20
-2.5542
11
4.79825
21
-2.55634
0
LINE
8
BLACK
6
CONTINUOUS
10
4.79825
20
-2.55634
11
4.79449
21
-2.55709
0
LINE
8
BLACK
6
CONTINUOUS
10
4.79449
20
-2.55709
11
4.76752
21
-2.55709
0
LINE
8
BLACK
6
CONTINUOUS
10
4.76752
20
-2.55709
11
4.76605
21
-2.56096
0
LINE
8
BLACK
6
CONTINUOUS
10
4.76605
20
-2.56096
11
4.76235
21
-2.56653
0
LINE
8
BLACK
6
CONTINUOUS
10
4.76235
20
-2.56653
11
4.75751
21
-2.57114
0
LINE
8
BLACK
6
CONTINUOUS
10
4.75751
20
-2.57114
11
4.75176
21
-2.57456
0
LINE
8
BLACK
6
CONTINUOUS
10
4.75176
20
-2.57456
11
4.7454
21
-2.57663
0
LINE
8
BLACK
6
CONTINUOUS
10
4.7454
20
-2.57663
11
4.73874
21
-2.57724
0
LINE
8
BLACK
6
CONTINUOUS
10
4.73874
20
-2.57724
11
4.73211
21
-2.57635
0
LINE
8
BLACK
6
CONTINUOUS
10
4.73211
20
-2.57635
11
4.72584
21
-2.57402
0
LINE
8
BLACK
6
CONTINUOUS
10
4.72584
20
-2.57402
11
4.72025
21
-2.57036
0
LINE
8
BLACK
6
CONTINUOUS
10
4.72025
20
-2.57036
11
4.7156
21
-2.56555
0
LINE
8
BLACK
6
CONTINUOUS
10
4.7156
20
-2.56555
11
4.71214
21
-2.55983
0
LINE
8
BLACK
6
CONTINUOUS
10
4.71214
20
-2.55983
11
4.71003
21
-2.55348
0
LINE
8
BLACK
6
CONTINUOUS
10
4.71003
20
-2.55348
11
4.70937
21
-2.54683
0
LINE
8
BLACK
6
CONTINUOUS
10
4.70937
20
-2.54683
11
4.71021
21
-2.54019
0
LINE
8
BLACK
6
CONTINUOUS
10
4.71021
20
-2.54019
11
4.7125
21
-2.53391
0
LINE
8
BLACK
6
CONTINUOUS
10
4.7125
20
-2.53391
11
4.71612
21
-2.52828
0
LINE
8
BLACK
6
CONTINUOUS
10
4.71612
20
-2.52828
11
4.7209
21
-2.5236
0
LINE
8
BLACK
6
CONTINUOUS
10
4.7209
20
-2.5236
11
4.7266
21
-2.5201
0
LINE
8
BLACK
6
CONTINUOUS
10
4.7266
20
-2.5201
11
4.73293
21
-2.51794
0
LINE
8
BLACK
6
CONTINUOUS
10
4.73293
20
-2.51794
11
4.73958
21
-2.51724
0
LINE
8
BLACK
6
CONTINUOUS
10
4.73958
20
-2.51724
11
4.74622
21
-2.51804
0
LINE
8
BLACK
6
CONTINUOUS
10
4.74622
20
-2.51804
11
4.75252
21
-2.52028
0
LINE
8
BLACK
6
CONTINUOUS
10
4.75252
20
-2.52028
11
4.75817
21
-2.52386
0
LINE
8
BLACK
6
CONTINUOUS
10
4.75817
20
-2.52386
11
4.76288
21
-2.52861
0
LINE
8
BLACK
6
CONTINUOUS
10
4.76288
20
-2.52861
11
4.76643
21
-2.53428
0
LINE
8
BLACK
6
CONTINUOUS
10
4.76643
20
-2.53428
11
4.76751
21
-2.5374
0
LINE
8
BLACK
6
CONTINUOUS
10
4.76751
20
-2.5374
11
4.79041
21
-2.5374
0
LINE
8
BLACK
6
CONTINUOUS
10
4.79041
20
-2.5374
11
4.82283
21
-2.50498
0
LINE
8
BLACK
6
CONTINUOUS
10
4.82283
20
-2.50498
11
4.82283
21
-2.4592
0
LINE
8
BLACK
6
CONTINUOUS
10
4.82283
20
-2.4592
11
4.74199
21
-2.37835
0
LINE
8
BLACK
6
CONTINUOUS
10
4.74199
20
-2.37835
11
4.56077
21
-2.37835
0
LINE
8
BLACK
6
CONTINUOUS
10
4.56077
20
-2.37835
11
4.48937
21
-2.44975
0
LINE
8
BLACK
6
CONTINUOUS
10
4.48937
20
-2.44975
11
4.48937
21
-2.54961
0
LINE
8
BLACK
6
CONTINUOUS
10
4.48937
20
-2.54961
11
4.48862
21
-2.55337
0
LINE
8
BLACK
6
CONTINUOUS
10
4.48862
20
-2.55337
11
4.48649
21
-2.55657
0
LINE
8
BLACK
6
CONTINUOUS
10
4.48649
20
-2.55657
11
4.29134
21
-2.75171
0
LINE
8
BLACK
6
CONTINUOUS
10
4.29134
20
-2.75171
11
4.29134
21
-2.8508
0
LINE
8
BLACK
6
CONTINUOUS
10
4.29134
20
-2.8508
11
4.29465
21
-2.85197
0
LINE
8
BLACK
6
CONTINUOUS
10
4.29465
20
-2.85197
11
4.30029
21
-2.85556
0
LINE
8
BLACK
6
CONTINUOUS
10
4.30029
20
-2.85556
11
4.30501
21
-2.8603
0
LINE
8
BLACK
6
CONTINUOUS
10
4.30501
20
-2.8603
11
4.30855
21
-2.86597
0
LINE
8
BLACK
6
CONTINUOUS
10
4.30855
20
-2.86597
11
4.31075
21
-2.87229
0
LINE
8
BLACK
6
CONTINUOUS
10
4.31075
20
-2.87229
11
4.3115
21
-2.87894
0
LINE
8
BLACK
6
CONTINUOUS
10
4.3115
20
-2.87894
11
4.31148
21
-2.87977
0
LINE
8
BLACK
6
CONTINUOUS
10
4.31148
20
-2.87977
11
4.31055
21
-2.8864
0
LINE
8
BLACK
6
CONTINUOUS
10
4.31055
20
-2.8864
11
4.30818
21
-2.89265
0
LINE
8
BLACK
6
CONTINUOUS
10
4.30818
20
-2.89265
11
4.30448
21
-2.89822
0
LINE
8
BLACK
6
CONTINUOUS
10
4.30448
20
-2.89822
11
4.29963
21
-2.90283
0
LINE
8
BLACK
6
CONTINUOUS
10
4.29963
20
-2.90283
11
4.29389
21
-2.90626
0
LINE
8
BLACK
6
CONTINUOUS
10
4.29389
20
-2.90626
11
4.28753
21
-2.90832
0
LINE
8
BLACK
6
CONTINUOUS
10
4.28753
20
-2.90832
11
4.28087
21
-2.90893
0
LINE
8
BLACK
6
CONTINUOUS
10
4.28087
20
-2.90893
11
4.27424
21
-2.90805
0
LINE
8
BLACK
6
CONTINUOUS
10
4.27424
20
-2.90805
11
4.26797
21
-2.90571
0
LINE
8
BLACK
6
CONTINUOUS
10
4.26797
20
-2.90571
11
4.26237
21
-2.90205
0
LINE
8
BLACK
6
CONTINUOUS
10
4.26237
20
-2.90205
11
4.25773
21
-2.89724
0
LINE
8
BLACK
6
CONTINUOUS
10
4.25773
20
-2.89724
11
4.25426
21
-2.89152
0
LINE
8
BLACK
6
CONTINUOUS
10
4.25426
20
-2.89152
11
4.25215
21
-2.88517
0
LINE
8
BLACK
6
CONTINUOUS
10
4.25215
20
-2.88517
11
4.2515
21
-2.87852
0
LINE
8
BLACK
6
CONTINUOUS
10
4.2515
20
-2.87852
11
4.25234
21
-2.87188
0
LINE
8
BLACK
6
CONTINUOUS
10
4.25234
20
-2.87188
11
4.25462
21
-2.8656
0
LINE
8
BLACK
6
CONTINUOUS
10
4.25462
20
-2.8656
11
4.25825
21
-2.85998
0
LINE
8
BLACK
6
CONTINUOUS
10
4.25825
20
-2.85998
11
4.26303
21
-2.8553
0
LINE
8
BLACK
6
CONTINUOUS
10
4.26303
20
-2.8553
11
4.26872
21
-2.85179
0
LINE
8
BLACK
6
CONTINUOUS
10
4.26872
20
-2.85179
11
4.27165
21
-2.85079
0
LINE
8
BLACK
6
CONTINUOUS
10
4.27165
20
-2.85079
11
4.27165
21
-2.74764
0
LINE
8
BLACK
6
CONTINUOUS
10
4.27165
20
-2.74764
11
4.2724
21
-2.74387
0
LINE
8
BLACK
6
CONTINUOUS
10
4.2724
20
-2.74387
11
4.27454
21
-2.74068
0
LINE
8
BLACK
6
CONTINUOUS
10
4.27454
20
-2.74068
11
4.46969
21
-2.54553
0
LINE
8
BLACK
6
CONTINUOUS
10
4.46969
20
-2.54553
11
4.46969
21
-2.44567
0
LINE
8
BLACK
6
CONTINUOUS
10
4.46969
20
-2.44567
11
4.47043
21
-2.4419
0
LINE
8
BLACK
6
CONTINUOUS
10
4.47043
20
-2.4419
11
4.47257
21
-2.43871
0
LINE
8
BLACK
6
CONTINUOUS
10
4.47257
20
-2.43871
11
4.54973
21
-2.36154
0
LINE
8
BLACK
6
CONTINUOUS
10
4.54973
20
-2.36154
11
4.54973
21
-2.36154
0
LINE
8
BLACK
6
CONTINUOUS
10
4.54973
20
-2.36154
11
4.55293
21
-2.35941
0
LINE
8
BLACK
6
CONTINUOUS
10
4.55293
20
-2.35941
11
4.55669
21
-2.35866
0
LINE
8
BLACK
6
CONTINUOUS
10
4.55669
20
-2.35866
11
4.55669
21
-2.35866
0
LINE
8
BLACK
6
CONTINUOUS
10
4.55669
20
-2.35866
11
4.74606
21
-2.35866
0
LINE
8
BLACK
6
CONTINUOUS
10
4.74606
20
-2.35866
11
4.74983
21
-2.35941
0
LINE
8
BLACK
6
CONTINUOUS
10
4.74983
20
-2.35941
11
4.75302
21
-2.36154
0
LINE
8
BLACK
6
CONTINUOUS
10
4.64622
20
-2.63851
11
4.65252
21
-2.64075
0
LINE
8
BLACK
6
CONTINUOUS
10
4.65252
20
-2.64075
11
4.65817
21
-2.64434
0
LINE
8
BLACK
6
CONTINUOUS
10
4.65817
20
-2.64434
11
4.66288
21
-2.64908
0
LINE
8
BLACK
6
CONTINUOUS
10
4.66288
20
-2.64908
11
4.66643
21
-2.65475
0
LINE
8
BLACK
6
CONTINUOUS
10
4.66643
20
-2.65475
11
4.66862
21
-2.66107
0
LINE
8
BLACK
6
CONTINUOUS
10
4.66862
20
-2.66107
11
4.66937
21
-2.66772
0
LINE
8
BLACK
6
CONTINUOUS
10
4.66937
20
-2.66772
11
4.66936
21
-2.66855
0
LINE
8
BLACK
6
CONTINUOUS
10
4.66936
20
-2.66855
11
4.66843
21
-2.67518
0
LINE
8
BLACK
6
CONTINUOUS
10
4.66843
20
-2.67518
11
4.66605
21
-2.68143
0
LINE
8
BLACK
6
CONTINUOUS
10
4.66605
20
-2.68143
11
4.66235
21
-2.687
0
LINE
8
BLACK
6
CONTINUOUS
10
4.66235
20
-2.687
11
4.65751
21
-2.69161
0
LINE
8
BLACK
6
CONTINUOUS
10
4.65751
20
-2.69161
11
4.65176
21
-2.69504
0
LINE
8
BLACK
6
CONTINUOUS
10
4.65176
20
-2.69504
11
4.6454
21
-2.6971
0
LINE
8
BLACK
6
CONTINUOUS
10
4.6454
20
-2.6971
11
4.63874
21
-2.69771
0
LINE
8
BLACK
6
CONTINUOUS
10
4.63874
20
-2.69771
11
4.63211
21
-2.69683
0
LINE
8
BLACK
6
CONTINUOUS
10
4.63211
20
-2.69683
11
4.62584
21
-2.69449
0
LINE
8
BLACK
6
CONTINUOUS
10
4.62584
20
-2.69449
11
4.62025
21
-2.69083
0
LINE
8
BLACK
6
CONTINUOUS
10
4.62025
20
-2.69083
11
4.6156
21
-2.68602
0
LINE
8
BLACK
6
CONTINUOUS
10
4.6156
20
-2.68602
11
4.61214
21
-2.6803
0
LINE
8
BLACK
6
CONTINUOUS
10
4.61214
20
-2.6803
11
4.61122
21
-2.67756
0
LINE
8
BLACK
6
CONTINUOUS
10
4.61122
20
-2.67756
11
4.55664
21
-2.67756
0
LINE
8
BLACK
6
CONTINUOUS
10
4.55664
20
-2.67756
11
4.40848
21
-2.82571
0
LINE
8
BLACK
6
CONTINUOUS
10
4.40848
20
-2.82571
11
4.40855
21
-2.82582
0
LINE
8
BLACK
6
CONTINUOUS
10
4.40855
20
-2.82582
11
4.41075
21
-2.83213
0
LINE
8
BLACK
6
CONTINUOUS
10
4.41075
20
-2.83213
11
4.4115
21
-2.83878
0
LINE
8
BLACK
6
CONTINUOUS
10
4.4115
20
-2.83878
11
4.41148
21
-2.83962
0
LINE
8
BLACK
6
CONTINUOUS
10
4.41148
20
-2.83962
11
4.41055
21
-2.84624
0
LINE
8
BLACK
6
CONTINUOUS
10
4.41055
20
-2.84624
11
4.40818
21
-2.85249
0
LINE
8
BLACK
6
CONTINUOUS
10
4.40818
20
-2.85249
11
4.40448
21
-2.85806
0
LINE
8
BLACK
6
CONTINUOUS
10
4.40448
20
-2.85806
11
4.39963
21
-2.86268
0
LINE
8
BLACK
6
CONTINUOUS
10
4.39963
20
-2.86268
11
4.39389
21
-2.8661
0
LINE
8
BLACK
6
CONTINUOUS
10
4.39389
20
-2.8661
11
4.38753
21
-2.86817
0
LINE
8
BLACK
6
CONTINUOUS
10
4.38753
20
-2.86817
11
4.38087
21
-2.86877
0
LINE
8
BLACK
6
CONTINUOUS
10
4.38087
20
-2.86877
11
4.37424
21
-2.86789
0
LINE
8
BLACK
6
CONTINUOUS
10
4.37424
20
-2.86789
11
4.36797
21
-2.86556
0
LINE
8
BLACK
6
CONTINUOUS
10
4.36797
20
-2.86556
11
4.36237
21
-2.86189
0
LINE
8
BLACK
6
CONTINUOUS
10
4.36237
20
-2.86189
11
4.35773
21
-2.85708
0
LINE
8
BLACK
6
CONTINUOUS
10
4.35773
20
-2.85708
11
4.35426
21
-2.85136
0
LINE
8
BLACK
6
CONTINUOUS
10
4.35426
20
-2.85136
11
4.35215
21
-2.84502
0
LINE
8
BLACK
6
CONTINUOUS
10
4.35215
20
-2.84502
11
4.3515
21
-2.83836
0
LINE
8
BLACK
6
CONTINUOUS
10
4.3515
20
-2.83836
11
4.35234
21
-2.83173
0
LINE
8
BLACK
6
CONTINUOUS
10
4.35234
20
-2.83173
11
4.35462
21
-2.82544
0
LINE
8
BLACK
6
CONTINUOUS
10
4.35462
20
-2.82544
11
4.35825
21
-2.81982
0
LINE
8
BLACK
6
CONTINUOUS
10
4.35825
20
-2.81982
11
4.36303
21
-2.81514
0
LINE
8
BLACK
6
CONTINUOUS
10
4.36303
20
-2.81514
11
4.36872
21
-2.81163
0
LINE
8
BLACK
6
CONTINUOUS
10
4.36872
20
-2.81163
11
4.37505
21
-2.80948
0
LINE
8
BLACK
6
CONTINUOUS
10
4.37505
20
-2.80948
11
4.38171
21
-2.80878
0
LINE
8
BLACK
6
CONTINUOUS
10
4.38171
20
-2.80878
11
4.38835
21
-2.80957
0
LINE
8
BLACK
6
CONTINUOUS
10
4.38835
20
-2.80957
11
4.39457
21
-2.81179
0
LINE
8
BLACK
6
CONTINUOUS
10
4.39457
20
-2.81179
11
4.5456
21
-2.66076
0
LINE
8
BLACK
6
CONTINUOUS
10
4.5456
20
-2.66076
11
4.54879
21
-2.65862
0
LINE
8
BLACK
6
CONTINUOUS
10
4.54879
20
-2.65862
11
4.55256
21
-2.65787
0
LINE
8
BLACK
6
CONTINUOUS
10
4.55256
20
-2.65787
11
4.61123
21
-2.65787
0
LINE
8
BLACK
6
CONTINUOUS
10
4.61123
20
-2.65787
11
4.6125
21
-2.65438
0
LINE
8
BLACK
6
CONTINUOUS
10
4.6125
20
-2.65438
11
4.61612
21
-2.64876
0
LINE
8
BLACK
6
CONTINUOUS
10
4.61612
20
-2.64876
11
4.6209
21
-2.64408
0
LINE
8
BLACK
6
CONTINUOUS
10
4.6209
20
-2.64408
11
4.6266
21
-2.64057
0
LINE
8
BLACK
6
CONTINUOUS
10
4.6266
20
-2.64057
11
4.63293
21
-2.63842
0
LINE
8
BLACK
6
CONTINUOUS
10
4.63293
20
-2.63842
11
4.63958
21
-2.63772
0
LINE
8
BLACK
6
CONTINUOUS
10
4.63958
20
-2.63772
11
4.64622
21
-2.63851
0
LINE
8
BLACK
6
CONTINUOUS
10
4.64622
20
-2.71882
11
4.65252
21
-2.72107
0
LINE
8
BLACK
6
CONTINUOUS
10
4.65252
20
-2.72107
11
4.65817
21
-2.72465
0
LINE
8
BLACK
6
CONTINUOUS
10
4.65817
20
-2.72465
11
4.66288
21
-2.7294
0
LINE
8
BLACK
6
CONTINUOUS
10
4.66288
20
-2.7294
11
4.66643
21
-2.73507
0
LINE
8
BLACK
6
CONTINUOUS
10
4.66643
20
-2.73507
11
4.66862
21
-2.74139
0
LINE
8
BLACK
6
CONTINUOUS
10
4.66862
20
-2.74139
11
4.66937
21
-2.74803
0
LINE
8
BLACK
6
CONTINUOUS
10
4.66937
20
-2.74803
11
4.66936
21
-2.74887
0
LINE
8
BLACK
6
CONTINUOUS
10
4.66936
20
-2.74887
11
4.66843
21
-2.75549
0
LINE
8
BLACK
6
CONTINUOUS
10
4.66843
20
-2.75549
11
4.66605
21
-2.76174
0
LINE
8
BLACK
6
CONTINUOUS
10
4.66605
20
-2.76174
11
4.66235
21
-2.76732
0
LINE
8
BLACK
6
CONTINUOUS
10
4.66235
20
-2.76732
11
4.65751
21
-2.77193
0
LINE
8
BLACK
6
CONTINUOUS
10
4.65751
20
-2.77193
11
4.65176
21
-2.77535
0
LINE
8
BLACK
6
CONTINUOUS
10
4.65176
20
-2.77535
11
4.6454
21
-2.77742
0
LINE
8
BLACK
6
CONTINUOUS
10
4.6454
20
-2.77742
11
4.63874
21
-2.77802
0
LINE
8
BLACK
6
CONTINUOUS
10
4.63874
20
-2.77802
11
4.63211
21
-2.77714
0
LINE
8
BLACK
6
CONTINUOUS
10
4.63211
20
-2.77714
11
4.62584
21
-2.77481
0
LINE
8
BLACK
6
CONTINUOUS
10
4.62584
20
-2.77481
11
4.62025
21
-2.77115
0
LINE
8
BLACK
6
CONTINUOUS
10
4.62025
20
-2.77115
11
4.6156
21
-2.76634
0
LINE
8
BLACK
6
CONTINUOUS
10
4.6156
20
-2.76634
11
4.61214
21
-2.76062
0
LINE
8
BLACK
6
CONTINUOUS
10
4.61214
20
-2.76062
11
4.61003
21
-2.75427
0
LINE
8
BLACK
6
CONTINUOUS
10
4.61003
20
-2.75427
11
4.60937
21
-2.74761
0
LINE
8
BLACK
6
CONTINUOUS
10
4.60937
20
-2.74761
11
4.61021
21
-2.74098
0
LINE
8
BLACK
6
CONTINUOUS
10
4.61021
20
-2.74098
11
4.6125
21
-2.73469
0
LINE
8
BLACK
6
CONTINUOUS
10
4.6125
20
-2.73469
11
4.61612
21
-2.72907
0
LINE
8
BLACK
6
CONTINUOUS
10
4.61612
20
-2.72907
11
4.6209
21
-2.72439
0
LINE
8
BLACK
6
CONTINUOUS
10
4.6209
20
-2.72439
11
4.6266
21
-2.72089
0
LINE
8
BLACK
6
CONTINUOUS
10
4.6266
20
-2.72089
11
4.63293
21
-2.71873
0
LINE
8
BLACK
6
CONTINUOUS
10
4.63293
20
-2.71873
11
4.63958
21
-2.71803
0
LINE
8
BLACK
6
CONTINUOUS
10
4.63958
20
-2.71803
11
4.64622
21
-2.71882
0
LINE
8
BLACK
6
CONTINUOUS
10
4.1965
20
-2.62526
11
4.20603
21
-2.62696
0
LINE
8
BLACK
6
CONTINUOUS
10
4.20603
20
-2.62696
11
4.21515
21
-2.63019
0
LINE
8
BLACK
6
CONTINUOUS
10
4.21515
20
-2.63019
11
4.22363
21
-2.63487
0
LINE
8
BLACK
6
CONTINUOUS
10
4.22363
20
-2.63487
11
4.23122
21
-2.64086
0
LINE
8
BLACK
6
CONTINUOUS
10
4.23122
20
-2.64086
11
4.23773
21
-2.64802
0
LINE
8
BLACK
6
CONTINUOUS
10
4.23773
20
-2.64802
11
4.24299
21
-2.65615
0
LINE
8
BLACK
6
CONTINUOUS
10
4.24299
20
-2.65615
11
4.24685
21
-2.66502
0
LINE
8
BLACK
6
CONTINUOUS
10
4.24685
20
-2.66502
11
4.24921
21
-2.67441
0
LINE
8
BLACK
6
CONTINUOUS
10
4.24921
20
-2.67441
11
4.25
21
-2.68406
0
LINE
8
BLACK
6
CONTINUOUS
10
4.25
20
-2.68406
11
4.24993
21
-2.68694
0
LINE
8
BLACK
6
CONTINUOUS
10
4.24993
20
-2.68694
11
4.24867
21
-2.69653
0
LINE
8
BLACK
6
CONTINUOUS
10
4.24867
20
-2.69653
11
4.24585
21
-2.70579
0
LINE
8
BLACK
6
CONTINUOUS
10
4.24585
20
-2.70579
11
4.24156
21
-2.71447
0
LINE
8
BLACK
6
CONTINUOUS
10
4.24156
20
-2.71447
11
4.23592
21
-2.72233
0
LINE
8
BLACK
6
CONTINUOUS
10
4.23592
20
-2.72233
11
4.22906
21
-2.72916
0
LINE
8
BLACK
6
CONTINUOUS
10
4.22906
20
-2.72916
11
4.22118
21
-2.73478
0
LINE
8
BLACK
6
CONTINUOUS
10
4.22118
20
-2.73478
11
4.21249
21
-2.73904
0
LINE
8
BLACK
6
CONTINUOUS
10
4.21249
20
-2.73904
11
4.20322
21
-2.74182
0
LINE
8
BLACK
6
CONTINUOUS
10
4.20322
20
-2.74182
11
4.19362
21
-2.74305
0
LINE
8
BLACK
6
CONTINUOUS
10
4.19362
20
-2.74305
11
4.18395
21
-2.74269
0
LINE
8
BLACK
6
CONTINUOUS
10
4.18395
20
-2.74269
11
4.17447
21
-2.74077
0
LINE
8
BLACK
6
CONTINUOUS
10
4.17447
20
-2.74077
11
4.16543
21
-2.73731
0
LINE
8
BLACK
6
CONTINUOUS
10
4.16543
20
-2.73731
11
4.15707
21
-2.73243
0
LINE
8
BLACK
6
CONTINUOUS
10
4.15707
20
-2.73243
11
4.14963
21
-2.72625
0
LINE
8
BLACK
6
CONTINUOUS
10
4.14963
20
-2.72625
11
4.14329
21
-2.71893
0
LINE
8
BLACK
6
CONTINUOUS
10
4.14329
20
-2.71893
11
4.13823
21
-2.71068
0
LINE
8
BLACK
6
CONTINUOUS
10
4.13823
20
-2.71068
11
4.13459
21
-2.70172
0
LINE
8
BLACK
6
CONTINUOUS
10
4.13459
20
-2.70172
11
4.13246
21
-2.69227
0
LINE
8
BLACK
6
CONTINUOUS
10
4.13246
20
-2.69227
11
4.13191
21
-2.68261
0
LINE
8
BLACK
6
CONTINUOUS
10
4.13191
20
-2.68261
11
4.13294
21
-2.67299
0
LINE
8
BLACK
6
CONTINUOUS
10
4.13294
20
-2.67299
11
4.13552
21
-2.66366
0
LINE
8
BLACK
6
CONTINUOUS
10
4.13552
20
-2.66366
11
4.1396
21
-2.65489
0
LINE
8
BLACK
6
CONTINUOUS
10
4.1396
20
-2.65489
11
4.14505
21
-2.64689
0
LINE
8
BLACK
6
CONTINUOUS
10
4.14505
20
-2.64689
11
4.15174
21
-2.63989
0
LINE
8
BLACK
6
CONTINUOUS
10
4.15174
20
-2.63989
11
4.15948
21
-2.63408
0
LINE
8
BLACK
6
CONTINUOUS
10
4.15948
20
-2.63408
11
4.16806
21
-2.62961
0
LINE
8
BLACK
6
CONTINUOUS
10
4.16806
20
-2.62961
11
4.17726
21
-2.62661
0
LINE
8
BLACK
6
CONTINUOUS
10
4.17726
20
-2.62661
11
4.18683
21
-2.62514
0
LINE
8
BLACK
6
CONTINUOUS
10
4.18683
20
-2.62514
11
4.1965
21
-2.62526
0
LINE
8
BLACK
6
CONTINUOUS
10
4.74622
20
-2.67867
11
4.75252
21
-2.68091
0
LINE
8
BLACK
6
CONTINUOUS
10
4.75252
20
-2.68091
11
4.75817
21
-2.68449
0
LINE
8
BLACK
6
CONTINUOUS
10
4.75817
20
-2.68449
11
4.76288
21
-2.68924
0
LINE
8
BLACK
6
CONTINUOUS
10
4.76288
20
-2.68924
11
4.76643
21
-2.69491
0
LINE
8
BLACK
6
CONTINUOUS
10
4.76643
20
-2.69491
11
4.76862
21
-2.70123
0
LINE
8
BLACK
6
CONTINUOUS
10
4.76862
20
-2.70123
11
4.76937
21
-2.70787
0
LINE
8
BLACK
6
CONTINUOUS
10
4.76937
20
-2.70787
11
4.76936
21
-2.70871
0
LINE
8
BLACK
6
CONTINUOUS
10
4.76936
20
-2.70871
11
4.76843
21
-2.71533
0
LINE
8
BLACK
6
CONTINUOUS
10
4.76843
20
-2.71533
11
4.76605
21
-2.72159
0
LINE
8
BLACK
6
CONTINUOUS
10
4.76605
20
-2.72159
11
4.76235
21
-2.72716
0
LINE
8
BLACK
6
CONTINUOUS
10
4.76235
20
-2.72716
11
4.75751
21
-2.73177
0
LINE
8
BLACK
6
CONTINUOUS
10
4.75751
20
-2.73177
11
4.75176
21
-2.73519
0
LINE
8
BLACK
6
CONTINUOUS
10
4.75176
20
-2.73519
11
4.7454
21
-2.73726
0
LINE
8
BLACK
6
CONTINUOUS
10
4.7454
20
-2.73726
11
4.73874
21
-2.73787
0
LINE
8
BLACK
6
CONTINUOUS
10
4.73874
20
-2.73787
11
4.73211
21
-2.73698
0
LINE
8
BLACK
6
CONTINUOUS
10
4.73211
20
-2.73698
11
4.72584
21
-2.73465
0
LINE
8
BLACK
6
CONTINUOUS
10
4.72584
20
-2.73465
11
4.72025
21
-2.73099
0
LINE
8
BLACK
6
CONTINUOUS
10
4.72025
20
-2.73099
11
4.7156
21
-2.72618
0
LINE
8
BLACK
6
CONTINUOUS
10
4.7156
20
-2.72618
11
4.71214
21
-2.72046
0
LINE
8
BLACK
6
CONTINUOUS
10
4.71214
20
-2.72046
11
4.71003
21
-2.71411
0
LINE
8
BLACK
6
CONTINUOUS
10
4.71003
20
-2.71411
11
4.70937
21
-2.70746
0
LINE
8
BLACK
6
CONTINUOUS
10
4.70937
20
-2.70746
11
4.71021
21
-2.70082
0
LINE
8
BLACK
6
CONTINUOUS
10
4.71021
20
-2.70082
11
4.7125
21
-2.69453
0
LINE
8
BLACK
6
CONTINUOUS
10
4.7125
20
-2.69453
11
4.71612
21
-2.68891
0
LINE
8
BLACK
6
CONTINUOUS
10
4.71612
20
-2.68891
11
4.7209
21
-2.68423
0
LINE
8
BLACK
6
CONTINUOUS
10
4.7209
20
-2.68423
11
4.7266
21
-2.68073
0
LINE
8
BLACK
6
CONTINUOUS
10
4.7266
20
-2.68073
11
4.73293
21
-2.67857
0
LINE
8
BLACK
6
CONTINUOUS
10
4.73293
20
-2.67857
11
4.73958
21
-2.67787
0
LINE
8
BLACK
6
CONTINUOUS
10
4.73958
20
-2.67787
11
4.74622
21
-2.67867
0
LINE
8
BLACK
6
CONTINUOUS
10
4.74622
20
-2.59835
11
4.75252
21
-2.6006
0
LINE
8
BLACK
6
CONTINUOUS
10
4.75252
20
-2.6006
11
4.75817
21
-2.60418
0
LINE
8
BLACK
6
CONTINUOUS
10
4.75817
20
-2.60418
11
4.76288
21
-2.60892
0
LINE
8
BLACK
6
CONTINUOUS
10
4.76288
20
-2.60892
11
4.76643
21
-2.6146
0
LINE
8
BLACK
6
CONTINUOUS
10
4.76643
20
-2.6146
11
4.76862
21
-2.62091
0
LINE
8
BLACK
6
CONTINUOUS
10
4.76862
20
-2.62091
11
4.76937
21
-2.62756
0
LINE
8
BLACK
6
CONTINUOUS
10
4.76937
20
-2.62756
11
4.76936
21
-2.6284
0
LINE
8
BLACK
6
CONTINUOUS
10
4.76936
20
-2.6284
11
4.76843
21
-2.63502
0
LINE
8
BLACK
6
CONTINUOUS
10
4.76843
20
-2.63502
11
4.76605
21
-2.64127
0
LINE
8
BLACK
6
CONTINUOUS
10
4.76605
20
-2.64127
11
4.76235
21
-2.64684
0
LINE
8
BLACK
6
CONTINUOUS
10
4.76235
20
-2.64684
11
4.75751
21
-2.65145
0
LINE
8
BLACK
6
CONTINUOUS
10
4.75751
20
-2.65145
11
4.75176
21
-2.65488
0
LINE
8
BLACK
6
CONTINUOUS
10
4.75176
20
-2.65488
11
4.7454
21
-2.65695
0
LINE
8
BLACK
6
CONTINUOUS
10
4.7454
20
-2.65695
11
4.73874
21
-2.65755
0
LINE
8
BLACK
6
CONTINUOUS
10
4.73874
20
-2.65755
11
4.73211
21
-2.65667
0
LINE
8
BLACK
6
CONTINUOUS
10
4.73211
20
-2.65667
11
4.72584
21
-2.65434
0
LINE
8
BLACK
6
CONTINUOUS
10
4.72584
20
-2.65434
11
4.72025
21
-2.65067
0
LINE
8
BLACK
6
CONTINUOUS
10
4.72025
20
-2.65067
11
4.7156
21
-2.64586
0
LINE
8
BLACK
6
CONTINUOUS
10
4.7156
20
-2.64586
11
4.71214
21
-2.64014
0
LINE
8
BLACK
6
CONTINUOUS
10
4.71214
20
-2.64014
11
4.71003
21
-2.6338
0
LINE
8
BLACK
6
CONTINUOUS
10
4.71003
20
-2.6338
11
4.70937
21
-2.62714
0
LINE
8
BLACK
6
CONTINUOUS
10
4.70937
20
-2.62714
11
4.71021
21
-2.6205
0
LINE
8
BLACK
6
CONTINUOUS
10
4.71021
20
-2.6205
11
4.7125
21
-2.61422
0
LINE
8
BLACK
6
CONTINUOUS
10
4.7125
20
-2.61422
11
4.71612
21
-2.6086
0
LINE
8
BLACK
6
CONTINUOUS
10
4.71612
20
-2.6086
11
4.7209
21
-2.60392
0
LINE
8
BLACK
6
CONTINUOUS
10
4.7209
20
-2.60392
11
4.7266
21
-2.60041
0
LINE
8
BLACK
6
CONTINUOUS
10
4.7266
20
-2.60041
11
4.73293
21
-2.59826
0
LINE
8
BLACK
6
CONTINUOUS
10
4.73293
20
-2.59826
11
4.73958
21
-2.59756
0
LINE
8
BLACK
6
CONTINUOUS
10
4.73958
20
-2.59756
11
4.74622
21
-2.59835
0
LINE
8
BLACK
6
CONTINUOUS
10
4.64622
20
-2.55819
11
4.65252
21
-2.56044
0
LINE
8
BLACK
6
CONTINUOUS
10
4.65252
20
-2.56044
11
4.65817
21
-2.56402
0
LINE
8
BLACK
6
CONTINUOUS
10
4.65817
20
-2.56402
11
4.66288
21
-2.56877
0
LINE
8
BLACK
6
CONTINUOUS
10
4.66288
20
-2.56877
11
4.66643
21
-2.57444
0
LINE
8
BLACK
6
CONTINUOUS
10
4.66643
20
-2.57444
11
4.66862
21
-2.58076
0
LINE
8
BLACK
6
CONTINUOUS
10
4.66862
20
-2.58076
11
4.66937
21
-2.5874
0
LINE
8
BLACK
6
CONTINUOUS
10
4.66937
20
-2.5874
11
4.66936
21
-2.58824
0
LINE
8
BLACK
6
CONTINUOUS
10
4.66936
20
-2.58824
11
4.66843
21
-2.59486
0
LINE
8
BLACK
6
CONTINUOUS
10
4.66843
20
-2.59486
11
4.66605
21
-2.60111
0
LINE
8
BLACK
6
CONTINUOUS
10
4.66605
20
-2.60111
11
4.66235
21
-2.60669
0
LINE
8
BLACK
6
CONTINUOUS
10
4.66235
20
-2.60669
11
4.65751
21
-2.6113
0
LINE
8
BLACK
6
CONTINUOUS
10
4.65751
20
-2.6113
11
4.65176
21
-2.61472
0
LINE
8
BLACK
6
CONTINUOUS
10
4.65176
20
-2.61472
11
4.6454
21
-2.61679
0
LINE
8
BLACK
6
CONTINUOUS
10
4.6454
20
-2.61679
11
4.63874
21
-2.6174
0
LINE
8
BLACK
6
CONTINUOUS
10
4.63874
20
-2.6174
11
4.63211
21
-2.61651
0
LINE
8
BLACK
6
CONTINUOUS
10
4.63211
20
-2.61651
11
4.62584
21
-2.61418
0
LINE
8
BLACK
6
CONTINUOUS
10
4.62584
20
-2.61418
11
4.62025
21
-2.61052
0
LINE
8
BLACK
6
CONTINUOUS
10
4.62025
20
-2.61052
11
4.6156
21
-2.60571
0
LINE
8
BLACK
6
CONTINUOUS
10
4.6156
20
-2.60571
11
4.61214
21
-2.59999
0
LINE
8
BLACK
6
CONTINUOUS
10
4.61214
20
-2.59999
11
4.61003
21
-2.59364
0
LINE
8
BLACK
6
CONTINUOUS
10
4.61003
20
-2.59364
11
4.60937
21
-2.58698
0
LINE
8
BLACK
6
CONTINUOUS
10
4.60937
20
-2.58698
11
4.61021
21
-2.58035
0
LINE
8
BLACK
6
CONTINUOUS
10
4.61021
20
-2.58035
11
4.6125
21
-2.57406
0
LINE
8
BLACK
6
CONTINUOUS
10
4.6125
20
-2.57406
11
4.61612
21
-2.56844
0
LINE
8
BLACK
6
CONTINUOUS
10
4.61612
20
-2.56844
11
4.6209
21
-2.56376
0
LINE
8
BLACK
6
CONTINUOUS
10
4.6209
20
-2.56376
11
4.6266
21
-2.56026
0
LINE
8
BLACK
6
CONTINUOUS
10
4.6266
20
-2.56026
11
4.63293
21
-2.5581
0
LINE
8
BLACK
6
CONTINUOUS
10
4.63293
20
-2.5581
11
4.63958
21
-2.5574
0
LINE
8
BLACK
6
CONTINUOUS
10
4.63958
20
-2.5574
11
4.64622
21
-2.55819
0
LINE
8
BLACK
6
CONTINUOUS
10
4.83548
20
-2.25341
11
4.84501
21
-2.25511
0
LINE
8
BLACK
6
CONTINUOUS
10
4.84501
20
-2.25511
11
4.85413
21
-2.25834
0
LINE
8
BLACK
6
CONTINUOUS
10
4.85413
20
-2.25834
11
4.8626
21
-2.26302
0
LINE
8
BLACK
6
CONTINUOUS
10
4.8626
20
-2.26302
11
4.8702
21
-2.26901
0
LINE
8
BLACK
6
CONTINUOUS
10
4.8702
20
-2.26901
11
4.87671
21
-2.27617
0
LINE
8
BLACK
6
CONTINUOUS
10
4.87671
20
-2.27617
11
4.88197
21
-2.2843
0
LINE
8
BLACK
6
CONTINUOUS
10
4.88197
20
-2.2843
11
4.88583
21
-2.29317
0
LINE
8
BLACK
6
CONTINUOUS
10
4.88583
20
-2.29317
11
4.88818
21
-2.30256
0
LINE
8
BLACK
6
CONTINUOUS
10
4.88818
20
-2.30256
11
4.88898
21
-2.3122
0
LINE
8
BLACK
6
CONTINUOUS
10
4.88898
20
-2.3122
11
4.88891
21
-2.31509
0
LINE
8
BLACK
6
CONTINUOUS
10
4.88891
20
-2.31509
11
4.88764
21
-2.32468
0
LINE
8
BLACK
6
CONTINUOUS
10
4.88764
20
-2.32468
11
4.88483
21
-2.33394
0
LINE
8
BLACK
6
CONTINUOUS
10
4.88483
20
-2.33394
11
4.88054
21
-2.34262
0
LINE
8
BLACK
6
CONTINUOUS
10
4.88054
20
-2.34262
11
4.87489
21
-2.35048
0
LINE
8
BLACK
6
CONTINUOUS
10
4.87489
20
-2.35048
11
4.86804
21
-2.35731
0
LINE
8
BLACK
6
CONTINUOUS
10
4.86804
20
-2.35731
11
4.86016
21
-2.36293
0
LINE
8
BLACK
6
CONTINUOUS
10
4.86016
20
-2.36293
11
4.85147
21
-2.36719
0
LINE
8
BLACK
6
CONTINUOUS
10
4.85147
20
-2.36719
11
4.8422
21
-2.36997
0
LINE
8
BLACK
6
CONTINUOUS
10
4.8422
20
-2.36997
11
4.8326
21
-2.3712
0
LINE
8
BLACK
6
CONTINUOUS
10
4.8326
20
-2.3712
11
4.82293
21
-2.37084
0
LINE
8
BLACK
6
CONTINUOUS
10
4.82293
20
-2.37084
11
4.81345
21
-2.36891
0
LINE
8
BLACK
6
CONTINUOUS
10
4.81345
20
-2.36891
11
4.8044
21
-2.36546
0
LINE
8
BLACK
6
CONTINUOUS
10
4.8044
20
-2.36546
11
4.79605
21
-2.36058
0
LINE
8
BLACK
6
CONTINUOUS
10
4.79605
20
-2.36058
11
4.7886
21
-2.3544
0
LINE
8
BLACK
6
CONTINUOUS
10
4.7886
20
-2.3544
11
4.78227
21
-2.34708
0
LINE
8
BLACK
6
CONTINUOUS
10
4.78227
20
-2.34708
11
4.77721
21
-2.33883
0
LINE
8
BLACK
6
CONTINUOUS
10
4.77721
20
-2.33883
11
4.77357
21
-2.32986
0
LINE
8
BLACK
6
CONTINUOUS
10
4.77357
20
-2.32986
11
4.77144
21
-2.32042
0
LINE
8
BLACK
6
CONTINUOUS
10
4.77144
20
-2.32042
11
4.77088
21
-2.31076
0
LINE
8
BLACK
6
CONTINUOUS
10
4.77088
20
-2.31076
11
4.77191
21
-2.30114
0
LINE
8
BLACK
6
CONTINUOUS
10
4.77191
20
-2.30114
11
4.7745
21
-2.29181
0
LINE
8
BLACK
6
CONTINUOUS
10
4.7745
20
-2.29181
11
4.77857
21
-2.28303
0
LINE
8
BLACK
6
CONTINUOUS
10
4.77857
20
-2.28303
11
4.78403
21
-2.27504
0
LINE
8
BLACK
6
CONTINUOUS
10
4.78403
20
-2.27504
11
4.79071
21
-2.26804
0
LINE
8
BLACK
6
CONTINUOUS
10
4.79071
20
-2.26804
11
4.79845
21
-2.26223
0
LINE
8
BLACK
6
CONTINUOUS
10
4.79845
20
-2.26223
11
4.80704
21
-2.25776
0
LINE
8
BLACK
6
CONTINUOUS
10
4.80704
20
-2.25776
11
4.81624
21
-2.25476
0
LINE
8
BLACK
6
CONTINUOUS
10
4.81624
20
-2.25476
11
4.8258
21
-2.25329
0
LINE
8
BLACK
6
CONTINUOUS
10
4.8258
20
-2.25329
11
4.83548
21
-2.25341
0
CIRCLE
8
BLACK
10
4.82992
20
-2.3122
40
0.0393701
0
CIRCLE
8
BLACK
10
4.82992
20
-2.90276
40
0.0393701
0
CIRCLE
8
BLACK
10
4.73937
20
-2.46693
40
0.0177165
0
CIRCLE
8
BLACK
10
4.63937
20
-2.50709
40
0.0177165
0
CIRCLE
8
BLACK
10
4.73937
20
-2.54724
40
0.0177165
0
CIRCLE
8
BLACK
10
4.63937
20
-2.5874
40
0.0177165
0
CIRCLE
8
BLACK
10
4.73937
20
-2.62756
40
0.0177165
0
CIRCLE
8
BLACK
10
4.63937
20
-2.66772
40
0.0177165
0
CIRCLE
8
BLACK
10
4.73937
20
-2.70787
40
0.0177165
0
CIRCLE
8
BLACK
10
4.63937
20
-2.74803
40
0.0177165
0
CIRCLE
8
BLACK
10
4.63661
20
-3.5248
40
0.0177165
0
CIRCLE
8
BLACK
10
4.73661
20
-3.48465
40
0.0177165
0
CIRCLE
8
BLACK
10
4.63661
20
-3.44449
40
0.0177165
0
CIRCLE
8
BLACK
10
4.73661
20
-3.40433
40
0.0177165
0
CIRCLE
8
BLACK
10
4.63661
20
-3.36417
40
0.0177165
0
CIRCLE
8
BLACK
10
4.73661
20
-3.32402
40
0.0177165
0
CIRCLE
8
BLACK
10
4.63661
20
-3.28386
40
0.0177165
0
CIRCLE
8
BLACK
10
4.73661
20
-3.2437
40
0.0177165
0
CIRCLE
8
BLACK
10
4.82717
20
-3.67953
40
0.0393701
0
CIRCLE
8
BLACK
10
4.82717
20
-3.08898
40
0.0393701
0
CIRCLE
8
BLACK
10
4.3815
20
-2.83878
40
0.0177165
0
CIRCLE
8
BLACK
10
4.2815
20
-2.87894
40
0.0177165
0
CIRCLE
8
BLACK
10
4.3815
20
-2.91909
40
0.0177165
0
CIRCLE
8
BLACK
10
4.2815
20
-2.95925
40
0.0177165
0
CIRCLE
8
BLACK
10
4.3815
20
-2.99941
40
0.0177165
0
CIRCLE
8
BLACK
10
4.2815
20
-3.03957
40
0.0177165
0
CIRCLE
8
BLACK
10
4.3815
20
-3.07972
40
0.0177165
0
CIRCLE
8
BLACK
10
4.2815
20
-3.11988
40
0.0177165
0
CIRCLE
8
BLACK
10
4.19094
20
-2.68406
40
0.0393701
0
CIRCLE
8
BLACK
10
4.19094
20
-3.27461
40
0.0393701
  0
ENDSEC
  0
EOF
